<svg xmlns="http://www.w3.org/2000/svg" width="283.161" height="240.385" viewBox="0 0 283.161 240.385">
  <g id="Grupo_15185" data-name="Grupo 15185" transform="translate(-211.422 -9132.827)">
    <ellipse id="Elipse_2" data-name="Elipse 2" cx="141.58" cy="29.019" rx="141.58" ry="29.019" transform="translate(211.422 9315.174)" fill="#e6e6e6"/>
    <g id="Grupo_11295" data-name="Grupo 11295" transform="translate(0.572 -3789.354)">
      <g id="Grupo_11257" data-name="Grupo 11257">
        <path id="Trazado_7165" data-name="Trazado 7165" d="M318.919,13062.171l5.135,21.63s8.6-7.949,5.884-19.382-14.181-15.533-17.27-15.339l-15.719-66.4s11.933-7.144,8.644-21a20.7,20.7,0,0,0-14.078-15.139l5.134,21.632-19.283,4.578-5.139-21.632a19.522,19.522,0,0,0-5.88,19.383c2.931,12.342,14.041,14.978,17.305,15.353l15.685,66.382s-11.912,7.225-8.533,21.463a20.164,20.164,0,0,0,13.966,14.672l-5.171-21.8Z" fill="#afaeb4"/>
        <path id="Trazado_7166" data-name="Trazado 7166" d="M305.409,13048.384a5.153,5.153,0,0,1-6.157-3.883l-12.084-51.416a5.106,5.106,0,1,1,9.94-2.336l12.086,51.418A5.151,5.151,0,0,1,305.409,13048.384Z" fill="#5c5b5f"/>
        <path id="Trazado_7167" data-name="Trazado 7167" d="M291.5,12989.2a2.774,2.774,0,0,0-2.038,3.348l12.086,51.418a2.749,2.749,0,1,0,5.352-1.26l-12.084-51.417A2.773,2.773,0,0,0,291.5,12989.2Z" fill="#88868b"/>
        <path id="Trazado_7168" data-name="Trazado 7168" d="M275.012,12976.33l25.556-6.066-5.273-22.212a17.486,17.486,0,0,0-3.669-1.526l5.137,21.63-19.286,4.577-5.14-21.63a16.654,16.654,0,0,0-2.634,2.883Z" fill="#88868b"/>
        <path id="Trazado_7169" data-name="Trazado 7169" d="M274.622,12976.931l26.563-6.3-5.28-22.24-.611-.336,5.274,22.212-25.558,6.064-5.306-22.334c-.132.179-.265.369-.4.563Z" fill="#5c5b5f"/>
        <path id="Trazado_7170" data-name="Trazado 7170" d="M321.273,13058.6l-25.556,6.066,5.274,22.21a17.608,17.608,0,0,0,3.67,1.529l-5.136-21.631,19.284-4.577,5.14,21.629a16.565,16.565,0,0,0,2.635-2.881Z" fill="#88868b"/>
        <path id="Trazado_7171" data-name="Trazado 7171" d="M321.664,13058,295.1,13064.3l5.279,22.239.611.334-5.272-22.211,25.556-6.065,5.307,22.334c.133-.179.267-.366.4-.561Z" fill="#5c5b5f"/>
      </g>
      <g id="Grupo_11258" data-name="Grupo 11258">
        <path id="Trazado_7172" data-name="Trazado 7172" d="M339.128,13048.265c-.288-5.062.194-50.927.194-50.927l-4.183-.022s-.081,47.982-.28,50.925c-.347,5.062-1.312,7.9-1.332,11.381l-.09,15.5,6.8.04.088-15.5C340.349,13056.181,339.415,13053.329,339.128,13048.265Z" fill="#5c5b5f"/>
        <path id="Trazado_7173" data-name="Trazado 7173" d="M350.007,12964.646c.2-5.271-.033-34.065-.033-34.065s.374-4.368-3.267-6.134a23.988,23.988,0,0,0-9.071-2.266h0a24,24,0,0,0-9.1,2.161c-3.658,1.724-3.336,6.1-3.336,6.1s-.566,28.789-.424,34.063,1.315,7.376,3.363,13.119-1.906,12.071-1.906,12.071c-1.3.927-1.667,3.9-1.3,6.588.513,3.771,7.434,5.284,11.1,5.528.379.027.764.033,1.148.031h0c.384.006.766,0,1.148-.019,3.667-.2,10.582-1.639,11.161-5.4.394-2.567.06-5.659-1.229-6.6,0,0-3.877-6.374-1.764-12.092S349.8,12969.917,350.007,12964.646Z" fill="#f9c200"/>
        <path id="Trazado_7174" data-name="Trazado 7174" d="M340.162,12968.955a5.076,5.076,0,0,1-5.109,5.049h0A5.08,5.08,0,0,1,330,12968.9l.226-39.336a5.079,5.079,0,0,1,5.108-5.049h0a5.079,5.079,0,0,1,5.05,5.108Z" fill="#332d2c"/>
        <path id="Trazado_7175" data-name="Trazado 7175" d="M344.827,12993.9l-.038,6.662c2.393-.849,4.421-2.178,4.722-4.144.4-2.567.062-5.661-1.226-6.6,0,0-.128-.21-.321-.582A5.083,5.083,0,0,0,344.827,12993.9Z" fill="#332d2c"/>
        <path id="Trazado_7176" data-name="Trazado 7176" d="M345.2,12929.648l-.227,39.333a5.079,5.079,0,0,0,3.084,4.7,24.9,24.9,0,0,0,1.977-9.033c.2-5.271-.032-34.065-.032-34.065a6.862,6.862,0,0,0-2.114-5.387A5.076,5.076,0,0,0,345.2,12929.648Z" fill="#332d2c"/>
        <path id="Trazado_7177" data-name="Trazado 7177" d="M340.019,12993.876a5.079,5.079,0,1,0-10.158-.059l-.038,6.743a24.675,24.675,0,0,0,6.209,1.248c.379.027.764.033,1.148.031s.766,0,1.148-.019c.5-.026,1.055-.078,1.647-.151Z" fill="#332d2c"/>
      </g>
      <g id="Grupo_11264" data-name="Grupo 11264">
        <path id="Trazado_7178" data-name="Trazado 7178" d="M380.894,12958.007l-4.3-4.24-1.509-14.126s-7.783,4.387-9.208,22.457Z" fill="#88868b"/>
        <g id="Grupo_11259" data-name="Grupo 11259">
          <path id="Trazado_7179" data-name="Trazado 7179" d="M380.764,12958.34l-4.4-4.348-1.554-14.172.816-.768,1.553,14.547,4.187,4.135Z" fill="#434041"/>
        </g>
        <path id="Trazado_7180" data-name="Trazado 7180" d="M371.017,13080.138l13.842-96.113-15.873-2.65-18.128,95.4.031,0a10.188,10.188,0,0,0,20.1,3.355Z" fill="#88868b"/>
        <path id="Trazado_7181" data-name="Trazado 7181" d="M402.876,12950.988c-4.223-4.685-15.669-13.338-15.669-13.338l2.623,13.931-4.9,5.4-22.89,5.706,6.894,18.8,15.859,2.646,17.488-22.1S407.1,12955.674,402.876,12950.988Z" fill="#afaeb4"/>
        <g id="Grupo_11261" data-name="Grupo 11261">
          <rect id="Rectángulo_6286" data-name="Rectángulo 6286" width="14.485" height="12.425" transform="translate(369.067 12965.617) rotate(-14.832)" fill="#727276"/>
          <g id="Grupo_11260" data-name="Grupo 11260">
            <path id="Trazado_7182" data-name="Trazado 7182" d="M374.525,12975.443a.809.809,0,0,1-.577.993h0a.814.814,0,0,1-.994-.577l-2.377-8.983a.812.812,0,0,1,.576-.994h0a.813.813,0,0,1,.994.577Z" fill="#434041"/>
            <path id="Trazado_7183" data-name="Trazado 7183" d="M377.1,12974.763a.812.812,0,0,1-.578.992h0a.81.81,0,0,1-.992-.578l-2.379-8.982a.813.813,0,0,1,.576-.994h0a.813.813,0,0,1,.994.578Z" fill="#434041"/>
            <path id="Trazado_7184" data-name="Trazado 7184" d="M379.678,12974.079a.816.816,0,0,1-.578.994h0a.815.815,0,0,1-.994-.577l-2.379-8.984a.812.812,0,0,1,.578-.993h0a.814.814,0,0,1,.994.577Z" fill="#434041"/>
            <path id="Trazado_7185" data-name="Trazado 7185" d="M382.254,12973.4a.815.815,0,0,1-.578.993h0a.814.814,0,0,1-.994-.577l-2.379-8.984a.813.813,0,0,1,.578-.993h0a.811.811,0,0,1,.992.577Z" fill="#434041"/>
            <path id="Trazado_7186" data-name="Trazado 7186" d="M384.828,12972.716a.809.809,0,0,1-.578.992h0a.81.81,0,0,1-.992-.577l-2.379-8.983a.81.81,0,0,1,.576-.992h0a.809.809,0,0,1,.993.576Z" fill="#434041"/>
          </g>
        </g>
        <g id="Grupo_11262" data-name="Grupo 11262">
          <path id="Trazado_7187" data-name="Trazado 7187" d="M368.072,13078.388c-.371,2.213-1.068,7.295-7.831,6.166l.006-.028c-6.178-1.031-5.705-6.122-5.334-8.334l16.911-86.414a4.124,4.124,0,0,1,4.793-3.317h0a4.124,4.124,0,0,1,3.455,4.694Z" fill="#5c5b5f"/>
          <path id="Trazado_7188" data-name="Trazado 7188" d="M376.145,12989.318a2.085,2.085,0,0,0-2.42,1.675l-16.414,85.235c-.562,3.37.453,5.036,3.4,5.529l.691.114a4.091,4.091,0,0,0,2.727-.516c1.179-.816,1.46-2.51,1.645-3.629l.8-4.8,11.3-81.2A2.093,2.093,0,0,0,376.145,12989.318Z" fill="#88868b"/>
        </g>
        <g id="Grupo_11263" data-name="Grupo 11263">
          <path id="Trazado_7189" data-name="Trazado 7189" d="M362.294,12963.462l-.2-.823,22.685-5.654,4.652-5.126-2.749-14.626,1.009.8,2.652,14.088-5.109,5.63Z" fill="#5c5b5f"/>
        </g>
      </g>
      <g id="Grupo_11267" data-name="Grupo 11267">
        <g id="Grupo_11265" data-name="Grupo 11265">
          <path id="Trazado_7190" data-name="Trazado 7190" d="M435.365,12947.688l.894-.425-.714-.22-1.144-.352-1.132-.351-16.494,21.9-4.153,13.491s3.248,3.842,4.3,4.985c3.167,3.449,5.569-3.22,5.569-3.22l6.2-18.4,0,0,.655-1.357-.822-.827.657-1.024-.675-1.057,1.126-.582-.41-.975,1.018-.315-.058-1.52,1.085.061.209-1.276,1.159.331.416-1.212.836-.4-.5-.859.9-.428-.5-.854.9-.425-.5-.856.9-.429-.5-.854.9-.426-.5-.856.9-.424Z" fill="#5c5b5f"/>
          <path id="Trazado_7191" data-name="Trazado 7191" d="M437.534,12948.355l-.5-.854.714.22,1.144.353,1.132.349,1.318,27.385-4.155,13.49s-4.848,1.352-6.356,1.705c-4.56,1.072-2.795-5.794-2.795-5.794l5.219-18.7h0l.22-1.487,1.146-.223.033-1.219,1.152-.494-.6-1.115.886-.572-.663-.834.9-1.225-.931-.561.544-1.171-1.143-.381.338-1.234-.466-.8.9-.43-.5-.856.895-.426-.5-.855.895-.426-.5-.858.895-.425-.5-.855.9-.427-.5-.854Z" fill="#5c5b5f"/>
        </g>
        <path id="Trazado_7192" data-name="Trazado 7192" d="M421.81,13000.353l7.96.146.066-6.794-7.961-.146Z" fill="#5c5b5f"/>
        <path id="Trazado_7193" data-name="Trazado 7193" d="M433.313,13007.787l-3.189-8.033-9.082-.244-1.889,6.157s6.475,8.69.12,28.942c-5.178,16.5-19.075,40.492-11.963,42.684,8.189,2.521,22.182-30.658,22.552-54.848C429.862,13022.445,428.66,13009.643,433.313,13007.787Z" fill="#f9c200"/>
        <g id="Grupo_11266" data-name="Grupo 11266">
          <path id="Trazado_7194" data-name="Trazado 7194" d="M419.116,12999.523l-6.665-4.356,3.768-5.654,6.665,4.355Z" fill="#5c5b5f"/>
          <path id="Trazado_7195" data-name="Trazado 7195" d="M405.422,12999.2l7.156-4.847,7.647,4.905-1.9,6.155s-10.242,3.541-16.382,23.86c-5,16.558-7.006,44.21-14.117,42.019-8.191-2.522-1.1-37.824,12.206-58.033C400.031,13013.258,408.226,13003.352,405.422,12999.2Z" fill="#f9c200"/>
        </g>
        <path id="Trazado_7196" data-name="Trazado 7196" d="M429.79,12996.851l7.4-7.553,4.155-13.49-1.361.407-6.494,13.809-3.7,4.17Z" fill="#1f140f"/>
        <path id="Trazado_7197" data-name="Trazado 7197" d="M414.452,12992.245l-1.866-10.4,4.153-13.49.9,1.1-2.4,15.071.716,5.53Z" fill="#1f140f"/>
        <path id="Trazado_7198" data-name="Trazado 7198" d="M434.332,12988.614a9.922,9.922,0,1,1-6.563-12.4A9.922,9.922,0,0,1,434.332,12988.614Z" fill="#5c5b5f"/>
        <path id="Trazado_7199" data-name="Trazado 7199" d="M429.993,12987.279a5.261,5.261,0,1,1-3.48-6.575A5.261,5.261,0,0,1,429.993,12987.279Z" fill="#1f140f"/>
        <path id="Trazado_7200" data-name="Trazado 7200" d="M429.7,13026.839c-4.486,16.666-15.551,33.678-20.321,41.045-2.832,4.374-2.854,7.416-2.213,9.338a2.007,2.007,0,0,0,.187.084C415.06,13079.679,427.9,13050.45,429.7,13026.839Z" fill="#1f140f"/>
        <path id="Trazado_7201" data-name="Trazado 7201" d="M397.784,13017.012c-5.666,16.3-6.087,36.592-6.288,45.366-.119,5.209-1.812,7.735-3.424,8.964a1.658,1.658,0,0,1-.2-.036C380.166,13068.934,385.991,13037.547,397.784,13017.012Z" fill="#1f140f"/>
      </g>
      <g id="Grupo_11294" data-name="Grupo 11294">
        <g id="Grupo_11268" data-name="Grupo 11268">
          <rect id="Rectángulo_6287" data-name="Rectángulo 6287" width="23.336" height="7.528" transform="translate(255.393 13133.548)" fill="#28201d"/>
          <rect id="Rectángulo_6288" data-name="Rectángulo 6288" width="23.336" height="7.528" transform="translate(438.881 13133.548)" fill="#28201d"/>
        </g>
        <rect id="Rectángulo_6289" data-name="Rectángulo 6289" width="223.323" height="78.15" transform="translate(247.143 13053.76)" fill="#977a6a"/>
        <rect id="Rectángulo_6290" data-name="Rectángulo 6290" width="229.846" height="15.307" transform="translate(243.882 13043.528)" fill="#332d2c"/>
        <rect id="Rectángulo_6291" data-name="Rectángulo 6291" width="229.846" height="5.771" transform="translate(243.882 13056.576)" fill="#28201d"/>
        <rect id="Rectángulo_6292" data-name="Rectángulo 6292" width="223.4" height="14.722" transform="translate(247.105 13122.485)" fill="#332d2c"/>
        <path id="Trazado_7202" data-name="Trazado 7202" d="M473.727,13043.544H243.882l12.312-15.432H461.415Z" fill="#434041"/>
        <g id="Grupo_11271" data-name="Grupo 11271">
          <g id="Grupo_11270" data-name="Grupo 11270">
            <path id="Trazado_7203" data-name="Trazado 7203" d="M317.4,13037.29v-33.977h12.609l-4.752,12.566,4.752,21.41Z" fill="#977a6a"/>
            <path id="Trazado_7204" data-name="Trazado 7204" d="M400.264,13037.29v-33.977H387.656l4.752,12.566-4.752,21.41Z" fill="#977a6a"/>
            <rect id="Rectángulo_6293" data-name="Rectángulo 6293" width="82.906" height="12.609" transform="translate(317.345 13003.318)" fill="#977a6a"/>
            <rect id="Rectángulo_6294" data-name="Rectángulo 6294" width="57.999" height="14.491" transform="translate(331.87 13002.424)" fill="#977a6a"/>
            <g id="Grupo_11269" data-name="Grupo 11269">
              <rect id="Rectángulo_6295" data-name="Rectángulo 6295" width="3.793" height="1.905" transform="translate(331.871 13016.279)" fill="#977a6a"/>
              <rect id="Rectángulo_6296" data-name="Rectángulo 6296" width="3.793" height="1.905" transform="translate(337.289 13016.279)" fill="#977a6a"/>
              <rect id="Rectángulo_6297" data-name="Rectángulo 6297" width="3.793" height="1.905" transform="translate(342.708 13016.279)" fill="#977a6a"/>
              <rect id="Rectángulo_6298" data-name="Rectángulo 6298" width="3.793" height="1.905" transform="translate(348.126 13016.279)" fill="#977a6a"/>
              <rect id="Rectángulo_6299" data-name="Rectángulo 6299" width="3.793" height="1.905" transform="translate(353.546 13016.279)" fill="#977a6a"/>
              <rect id="Rectángulo_6300" data-name="Rectángulo 6300" width="3.793" height="1.905" transform="translate(358.963 13016.279)" fill="#977a6a"/>
              <rect id="Rectángulo_6301" data-name="Rectángulo 6301" width="3.793" height="1.905" transform="translate(364.383 13016.279)" fill="#977a6a"/>
              <rect id="Rectángulo_6302" data-name="Rectángulo 6302" width="3.793" height="1.905" transform="translate(369.801 13016.279)" fill="#977a6a"/>
              <rect id="Rectángulo_6303" data-name="Rectángulo 6303" width="3.793" height="1.905" transform="translate(375.22 13016.279)" fill="#977a6a"/>
              <rect id="Rectángulo_6304" data-name="Rectángulo 6304" width="3.793" height="1.905" transform="translate(380.638 13016.279)" fill="#977a6a"/>
              <rect id="Rectángulo_6305" data-name="Rectángulo 6305" width="3.793" height="1.905" transform="translate(386.057 13016.279)" fill="#977a6a"/>
            </g>
          </g>
        </g>
        <g id="Grupo_11272" data-name="Grupo 11272" opacity="0.1">
          <rect id="Rectángulo_6306" data-name="Rectángulo 6306" width="7.151" height="51.565" transform="translate(251.598 13067.216)" fill="#fff"/>
          <rect id="Rectángulo_6307" data-name="Rectángulo 6307" width="7.151" height="51.565" transform="translate(266.403 13067.216)" fill="#fff"/>
          <rect id="Rectángulo_6308" data-name="Rectángulo 6308" width="7.151" height="51.565" transform="translate(281.207 13067.216)" fill="#fff"/>
          <rect id="Rectángulo_6309" data-name="Rectángulo 6309" width="7.151" height="51.565" transform="translate(296.011 13067.216)" fill="#fff"/>
          <rect id="Rectángulo_6310" data-name="Rectángulo 6310" width="7.151" height="51.565" transform="translate(310.815 13067.216)" fill="#fff"/>
          <rect id="Rectángulo_6311" data-name="Rectángulo 6311" width="7.151" height="51.565" transform="translate(325.621 13067.216)" fill="#fff"/>
          <rect id="Rectángulo_6312" data-name="Rectángulo 6312" width="7.151" height="51.565" transform="translate(340.425 13067.216)" fill="#fff"/>
          <rect id="Rectángulo_6313" data-name="Rectángulo 6313" width="7.151" height="51.565" transform="translate(355.229 13067.216)" fill="#fff"/>
          <rect id="Rectángulo_6314" data-name="Rectángulo 6314" width="7.151" height="51.565" transform="translate(370.033 13067.216)" fill="#fff"/>
          <rect id="Rectángulo_6315" data-name="Rectángulo 6315" width="7.151" height="51.565" transform="translate(384.838 13067.216)" fill="#fff"/>
          <rect id="Rectángulo_6316" data-name="Rectángulo 6316" width="7.151" height="51.565" transform="translate(399.643 13067.216)" fill="#fff"/>
          <rect id="Rectángulo_6317" data-name="Rectángulo 6317" width="7.151" height="51.565" transform="translate(414.447 13067.216)" fill="#fff"/>
          <rect id="Rectángulo_6318" data-name="Rectángulo 6318" width="7.151" height="51.565" transform="translate(429.251 13067.216)" fill="#fff"/>
          <rect id="Rectángulo_6319" data-name="Rectángulo 6319" width="7.151" height="51.565" transform="translate(444.056 13067.216)" fill="#fff"/>
          <rect id="Rectángulo_6320" data-name="Rectángulo 6320" width="7.151" height="51.565" transform="translate(458.86 13067.216)" fill="#fff"/>
        </g>
        <g id="Grupo_11293" data-name="Grupo 11293">
          <g id="Grupo_11282" data-name="Grupo 11282">
            <rect id="Rectángulo_6321" data-name="Rectángulo 6321" width="35.1" height="2.12" transform="translate(423.73 13074.839)" fill="#332d2c"/>
            <g id="Grupo_11274" data-name="Grupo 11274">
              <rect id="Rectángulo_6322" data-name="Rectángulo 6322" width="26.175" height="24.709" transform="translate(428.545 13049.606)" fill="#88868b"/>
              <g id="Grupo_11273" data-name="Grupo 11273">
                <rect id="Rectángulo_6323" data-name="Rectángulo 6323" width="2.861" height="20.973" transform="translate(430.955 13051.475)" fill="#5c5b5f"/>
                <rect id="Rectángulo_6324" data-name="Rectángulo 6324" width="2.861" height="20.973" transform="translate(437.155 13051.475)" fill="#5c5b5f"/>
                <rect id="Rectángulo_6325" data-name="Rectángulo 6325" width="2.863" height="20.973" transform="translate(443.355 13051.475)" fill="#5c5b5f"/>
                <rect id="Rectángulo_6326" data-name="Rectángulo 6326" width="2.863" height="20.973" transform="translate(449.555 13051.475)" fill="#5c5b5f"/>
              </g>
              <path id="Trazado_7205" data-name="Trazado 7205" d="M428.552,13074.3h26.141l1.106,3.678H427.447Z" fill="#5c5b5f"/>
            </g>
            <g id="Grupo_11275" data-name="Grupo 11275">
              <path id="Trazado_7206" data-name="Trazado 7206" d="M426.9,13077.541a1.731,1.731,0,0,1-1.731,1.731h0a1.731,1.731,0,0,1-1.73-1.731v-26.05a1.731,1.731,0,0,1,1.73-1.731h0a1.731,1.731,0,0,1,1.731,1.731Z" fill="#332d2c"/>
              <path id="Trazado_7207" data-name="Trazado 7207" d="M459.889,13077.541a1.731,1.731,0,0,1-1.73,1.731h0a1.731,1.731,0,0,1-1.731-1.731v-26.05a1.731,1.731,0,0,1,1.731-1.731h0a1.731,1.731,0,0,1,1.73,1.731Z" fill="#332d2c"/>
            </g>
            <g id="Grupo_11278" data-name="Grupo 11278">
              <g id="Grupo_11276" data-name="Grupo 11276">
                <path id="Trazado_7208" data-name="Trazado 7208" d="M459.435,13055.023a1.2,1.2,0,1,1-1.2-1.2A1.2,1.2,0,0,1,459.435,13055.023Z" fill="#c3c4ca"/>
                <path id="Trazado_7209" data-name="Trazado 7209" d="M458.434,13054.828l.573.194-.573.2-.194.572-.194-.572-.573-.2.573-.194.194-.571Z" fill="#434041"/>
              </g>
              <g id="Grupo_11277" data-name="Grupo 11277">
                <path id="Trazado_7210" data-name="Trazado 7210" d="M459.435,13075.871a1.2,1.2,0,1,1-1.2-1.2A1.2,1.2,0,0,1,459.435,13075.871Z" fill="#c3c4ca"/>
                <path id="Trazado_7211" data-name="Trazado 7211" d="M458.434,13075.677l.573.194-.573.193-.194.574-.194-.574-.573-.193.573-.194.194-.572Z" fill="#434041"/>
              </g>
            </g>
            <g id="Grupo_11281" data-name="Grupo 11281">
              <g id="Grupo_11279" data-name="Grupo 11279">
                <path id="Trazado_7212" data-name="Trazado 7212" d="M426.338,13055.023a1.2,1.2,0,1,1-1.2-1.2A1.2,1.2,0,0,1,426.338,13055.023Z" fill="#c3c4ca"/>
                <path id="Trazado_7213" data-name="Trazado 7213" d="M425.337,13054.828l.572.194-.572.2-.194.572-.2-.572-.572-.2.572-.194.2-.571Z" fill="#434041"/>
              </g>
              <g id="Grupo_11280" data-name="Grupo 11280">
                <path id="Trazado_7214" data-name="Trazado 7214" d="M426.338,13075.871a1.2,1.2,0,1,1-1.2-1.2A1.2,1.2,0,0,1,426.338,13075.871Z" fill="#c3c4ca"/>
                <path id="Trazado_7215" data-name="Trazado 7215" d="M425.337,13075.677l.572.194-.572.193-.194.574-.2-.574-.572-.193.572-.194.2-.572Z" fill="#434041"/>
              </g>
            </g>
          </g>
          <g id="Grupo_11292" data-name="Grupo 11292">
            <rect id="Rectángulo_6327" data-name="Rectángulo 6327" width="35.099" height="2.12" transform="translate(258.008 13074.839)" fill="#332d2c"/>
            <g id="Grupo_11284" data-name="Grupo 11284">
              <rect id="Rectángulo_6328" data-name="Rectángulo 6328" width="26.175" height="24.709" transform="translate(262.823 13049.606)" fill="#88868b"/>
              <g id="Grupo_11283" data-name="Grupo 11283">
                <rect id="Rectángulo_6329" data-name="Rectángulo 6329" width="2.863" height="20.973" transform="translate(265.233 13051.475)" fill="#5c5b5f"/>
                <rect id="Rectángulo_6330" data-name="Rectángulo 6330" width="2.863" height="20.973" transform="translate(271.433 13051.475)" fill="#5c5b5f"/>
                <rect id="Rectángulo_6331" data-name="Rectángulo 6331" width="2.863" height="20.973" transform="translate(277.633 13051.475)" fill="#5c5b5f"/>
                <rect id="Rectángulo_6332" data-name="Rectángulo 6332" width="2.863" height="20.973" transform="translate(283.833 13051.475)" fill="#5c5b5f"/>
              </g>
              <path id="Trazado_7216" data-name="Trazado 7216" d="M262.831,13074.3h26.143l1.1,3.678H261.725Z" fill="#5c5b5f"/>
            </g>
            <g id="Grupo_11285" data-name="Grupo 11285">
              <path id="Trazado_7217" data-name="Trazado 7217" d="M261.181,13077.541a1.731,1.731,0,0,1-1.731,1.731h0a1.731,1.731,0,0,1-1.73-1.731v-26.05a1.731,1.731,0,0,1,1.73-1.731h0a1.731,1.731,0,0,1,1.731,1.731Z" fill="#332d2c"/>
              <path id="Trazado_7218" data-name="Trazado 7218" d="M294.168,13077.541a1.731,1.731,0,0,1-1.729,1.731h0a1.732,1.732,0,0,1-1.732-1.731v-26.05a1.732,1.732,0,0,1,1.732-1.731h0a1.731,1.731,0,0,1,1.729,1.731Z" fill="#332d2c"/>
            </g>
            <g id="Grupo_11288" data-name="Grupo 11288">
              <g id="Grupo_11286" data-name="Grupo 11286">
                <path id="Trazado_7219" data-name="Trazado 7219" d="M293.715,13055.023a1.2,1.2,0,1,1-1.2-1.2A1.2,1.2,0,0,1,293.715,13055.023Z" fill="#c3c4ca"/>
                <path id="Trazado_7220" data-name="Trazado 7220" d="M292.712,13054.828l.573.194-.573.2-.194.572-.194-.572-.572-.2.572-.194.194-.571Z" fill="#434041"/>
              </g>
              <g id="Grupo_11287" data-name="Grupo 11287">
                <path id="Trazado_7221" data-name="Trazado 7221" d="M293.715,13075.871a1.2,1.2,0,1,1-1.2-1.2A1.2,1.2,0,0,1,293.715,13075.871Z" fill="#c3c4ca"/>
                <path id="Trazado_7222" data-name="Trazado 7222" d="M292.712,13075.677l.573.194-.573.193-.194.574-.194-.574-.572-.193.572-.194.194-.572Z" fill="#434041"/>
              </g>
            </g>
            <g id="Grupo_11291" data-name="Grupo 11291">
              <g id="Grupo_11289" data-name="Grupo 11289">
                <path id="Trazado_7223" data-name="Trazado 7223" d="M260.616,13055.023a1.2,1.2,0,1,1-1.2-1.2A1.2,1.2,0,0,1,260.616,13055.023Z" fill="#c3c4ca"/>
                <path id="Trazado_7224" data-name="Trazado 7224" d="M259.615,13054.828l.572.194-.572.2-.194.572-.2-.572-.572-.2.572-.194.2-.571Z" fill="#434041"/>
              </g>
              <g id="Grupo_11290" data-name="Grupo 11290">
                <path id="Trazado_7225" data-name="Trazado 7225" d="M260.616,13075.871a1.2,1.2,0,1,1-1.2-1.2A1.2,1.2,0,0,1,260.616,13075.871Z" fill="#c3c4ca"/>
                <path id="Trazado_7226" data-name="Trazado 7226" d="M259.615,13075.677l.572.194-.572.193-.194.574-.2-.574-.572-.193.572-.194.2-.572Z" fill="#434041"/>
              </g>
            </g>
          </g>
        </g>
      </g>
    </g>
  </g>
</svg>
