<?xml version="1.0" encoding="utf-8"?>
<!-- Generator: Adobe Illustrator 25.0.1, SVG Export Plug-In . SVG Version: 6.00 Build 0)  -->
<svg version="1.1" id="Capa_1" xmlns="http://www.w3.org/2000/svg" xmlns:xlink="http://www.w3.org/1999/xlink" x="0px" y="0px"
	 viewBox="0 0 436.3 125.2" style="enable-background:new 0 0 436.3 125.2;" xml:space="preserve">
<style type="text/css">
	.st0{enable-background:new    ;}
	.st1{fill:#14233A;}
	.st2{fill:none;stroke:#14233A;stroke-width:3;stroke-miterlimit:10;}
</style>
<g id="Grupo_11253" transform="translate(-494.442 -10390.297)">
	<g class="st0">
		<path class="st1" d="M515.4,10459.3v-16.1c0-2-0.5-3.5-1.4-4.5s-2.4-1.5-4.3-1.5c-2.6,0-4.5,0.7-5.7,2.1c-1.2,1.4-1.8,3.7-1.8,7
			v13h-3.8v-24.8h3.1l0.6,3.4h0.2c0.8-1.2,1.8-2.2,3.2-2.8c1.4-0.7,2.9-1,4.6-1c3,0,5.2,0.7,6.8,2.2c1.5,1.4,2.3,3.8,2.3,6.9v16.2
			H515.4z"/>
		<path class="st1" d="M537.7,10439.9v-3.1h21.1v3.1H537.7z M537.7,10449.1v-3.1h21.1v3.1H537.7z"/>
	</g>
	<g class="st0">
		<path class="st1" d="M744.6,10439.9v-3.1h21.1v3.1H744.6z M744.6,10449.1v-3.1h21.1v3.1H744.6z"/>
	</g>
	<g class="st0">
		<path class="st1" d="M603.7,10426.1c0-6.5,1.3-11.4,3.8-14.6s6.3-4.8,11.2-4.8c1.7,0,3.1,0.1,4,0.4v3.2c-1.2-0.4-2.5-0.6-4-0.6
			c-3.5,0-6.3,1.1-8.1,3.3s-2.9,5.7-3.1,10.4h0.3c1.7-2.6,4.3-3.9,7.9-3.9c3,0,5.3,0.9,7,2.7c1.7,1.8,2.6,4.2,2.6,7.3
			c0,3.4-0.9,6.2-2.8,8.1c-1.9,2-4.4,3-7.6,3c-3.4,0-6.1-1.3-8.2-3.9C604.7,10434.3,603.7,10430.7,603.7,10426.1z M614.8,10437.6
			c2.1,0,3.8-0.7,5-2c1.2-1.4,1.8-3.3,1.8-5.9c0-2.2-0.6-3.9-1.7-5.2c-1.1-1.3-2.7-1.9-4.9-1.9c-1.4,0-2.6,0.3-3.7,0.8
			c-1.1,0.6-2,1.3-2.7,2.3c-0.7,1-1,2-1,3.1c0,1.6,0.3,3,0.9,4.4c0.6,1.3,1.5,2.4,2.6,3.2
			C612.1,10437.2,613.4,10437.6,614.8,10437.6z"/>
		<path class="st1" d="M651.7,10423.7c0,5.7-0.9,10-2.7,12.8c-1.8,2.8-4.6,4.2-8.3,4.2c-3.6,0-6.3-1.4-8.1-4.3
			c-1.9-2.9-2.8-7.1-2.8-12.7c0-5.8,0.9-10.1,2.7-12.8c1.8-2.8,4.5-4.2,8.2-4.2c3.6,0,6.3,1.5,8.2,4.4S651.7,10418.2,651.7,10423.7z
			 M633.6,10423.7c0,4.8,0.6,8.3,1.7,10.5s2.9,3.3,5.4,3.3c2.5,0,4.3-1.1,5.4-3.3c1.1-2.2,1.7-5.7,1.7-10.5s-0.6-8.2-1.7-10.5
			c-1.1-2.2-2.9-3.3-5.4-3.3c-2.5,0-4.3,1.1-5.4,3.3C634.2,10415.4,633.6,10418.9,633.6,10423.7z"/>
		<path class="st1" d="M668.9,10405l-1,8.9l9-2.5l0.6,4.1l-8.6,0.7l5.6,7.4l-3.9,2.1l-4-8.2l-3.6,8.2l-4-2.1l5.5-7.4l-8.5-0.7
			l0.7-4.1l8.9,2.5l-1-8.9H668.9z"/>
		<path class="st1" d="M694.8,10418.4h-6.3v21.9h-3.8v-21.9h-4.4v-1.7l4.4-1.4v-1.4c0-6.1,2.7-9.2,8-9.2c1.3,0,2.9,0.3,4.6,0.8l-1,3
			c-1.4-0.5-2.7-0.7-3.7-0.7c-1.4,0-2.5,0.5-3.1,1.4c-0.7,0.9-1,2.5-1,4.5v1.6h6.3V10418.4z"/>
	</g>
	<g class="st0">
		<path class="st1" d="M653.2,10502c-1.6,0-3.1-0.3-4.4-0.9c-1.3-0.6-2.5-1.5-3.4-2.8h-0.3c0.2,1.5,0.3,2.8,0.3,4.1v10.2h-3.8v-36
			h3.1l0.5,3.4h0.2c1-1.4,2.1-2.3,3.4-2.9s2.8-0.9,4.4-0.9c3.3,0,5.8,1.1,7.6,3.4c1.8,2.3,2.7,5.4,2.7,9.5c0,4.1-0.9,7.2-2.7,9.5
			C659,10500.8,656.5,10502,653.2,10502z M652.7,10479.4c-2.5,0-4.4,0.7-5.5,2.1c-1.1,1.4-1.7,3.6-1.7,6.7v0.8c0,3.5,0.6,6,1.7,7.5
			c1.2,1.5,3,2.3,5.6,2.3c2.1,0,3.8-0.9,5-2.6c1.2-1.7,1.8-4.1,1.8-7.2c0-3.1-0.6-5.5-1.8-7.1
			C656.6,10480.3,654.9,10479.4,652.7,10479.4z"/>
	</g>
	<g class="st0">
		<path class="st1" d="M878.9,10502c-1.6,0-3.1-0.3-4.4-0.9c-1.3-0.6-2.5-1.5-3.4-2.8h-0.3c0.2,1.5,0.3,2.8,0.3,4.1v10.2h-3.8v-36
			h3.1l0.5,3.4h0.2c1-1.4,2.1-2.3,3.4-2.9c1.3-0.6,2.8-0.9,4.4-0.9c3.3,0,5.8,1.1,7.6,3.4c1.8,2.3,2.7,5.4,2.7,9.5
			c0,4.1-0.9,7.2-2.7,9.5S882.1,10502,878.9,10502z M878.3,10479.4c-2.5,0-4.4,0.7-5.5,2.1c-1.1,1.4-1.7,3.6-1.7,6.7v0.8
			c0,3.5,0.6,6,1.7,7.5s3,2.3,5.6,2.3c2.1,0,3.8-0.9,5-2.6c1.2-1.7,1.8-4.1,1.8-7.2c0-3.1-0.6-5.5-1.8-7.1
			C882.2,10480.3,880.5,10479.4,878.3,10479.4z"/>
	</g>
	<g class="st0">
		<path class="st1" d="M823.2,10440.3h-3.7v-23.6c0-2,0.1-3.8,0.2-5.6c-0.3,0.3-0.7,0.6-1.1,1c-0.4,0.3-2.2,1.8-5.4,4.4l-2-2.6
			l8.8-6.8h3.2V10440.3z"/>
		<path class="st1" d="M857.5,10440.3h-21.8v-3.2l8.7-8.8c2.7-2.7,4.4-4.6,5.3-5.8c0.8-1.1,1.5-2.3,1.9-3.4c0.4-1.1,0.6-2.3,0.6-3.5
			c0-1.8-0.5-3.2-1.6-4.2c-1.1-1-2.6-1.6-4.5-1.6c-1.4,0-2.7,0.2-3.9,0.7c-1.2,0.5-2.6,1.3-4.1,2.5l-2-2.6c3.1-2.5,6.4-3.8,10-3.8
			c3.1,0,5.6,0.8,7.3,2.4c1.8,1.6,2.7,3.7,2.7,6.4c0,2.1-0.6,4.2-1.8,6.2c-1.2,2.1-3.4,4.7-6.6,7.8l-7.3,7.1v0.2h17V10440.3z"/>
		<path class="st1" d="M884.3,10423.7c0,5.7-0.9,10-2.7,12.8s-4.6,4.2-8.3,4.2c-3.6,0-6.3-1.4-8.1-4.3c-1.9-2.9-2.8-7.1-2.8-12.7
			c0-5.8,0.9-10.1,2.7-12.8c1.8-2.8,4.5-4.2,8.2-4.2c3.6,0,6.3,1.5,8.2,4.4S884.3,10418.2,884.3,10423.7z M866.2,10423.7
			c0,4.8,0.6,8.3,1.7,10.5s2.9,3.3,5.4,3.3c2.5,0,4.3-1.1,5.4-3.3s1.7-5.7,1.7-10.5s-0.6-8.2-1.7-10.5s-2.9-3.3-5.4-3.3
			c-2.5,0-4.3,1.1-5.4,3.3C866.7,10415.4,866.2,10418.9,866.2,10423.7z"/>
		<path class="st1" d="M901.5,10405l-1,8.9l9-2.5l0.6,4.1l-8.6,0.7l5.6,7.4l-3.9,2.1l-4-8.2l-3.6,8.2l-4-2.1l5.5-7.4l-8.5-0.7
			l0.7-4.1l8.9,2.5l-1-8.9H901.5z"/>
		<path class="st1" d="M927.3,10418.4H921v21.9h-3.8v-21.9h-4.4v-1.7l4.4-1.4v-1.4c0-6.1,2.7-9.2,8-9.2c1.3,0,2.9,0.3,4.6,0.8l-1,3
			c-1.5-0.5-2.7-0.7-3.7-0.7c-1.4,0-2.5,0.5-3.1,1.4c-0.7,0.9-1,2.5-1,4.5v1.6h6.3V10418.4z"/>
	</g>
	<line id="Línea_7" class="st2" x1="591.3" y1="10454.1" x2="714.3" y2="10454.1"/>
	<line id="Línea_8" class="st2" x1="807.7" y1="10454.1" x2="930.7" y2="10454.1"/>
</g>
</svg>
