<?xml version="1.0" encoding="utf-8"?>
<!-- Generator: Adobe Illustrator 25.0.1, SVG Export Plug-In . SVG Version: 6.00 Build 0)  -->
<svg version="1.1" id="Capa_1" xmlns="http://www.w3.org/2000/svg" xmlns:xlink="http://www.w3.org/1999/xlink" x="0px" y="0px"
	 viewBox="0 0 197.6 85.2" style="enable-background:new 0 0 197.6 85.2;" xml:space="preserve">
<style type="text/css">
	.st0{fill:#FFC000;}
	.st1{fill:#FFAC00;}
	.st2{fill:#EEEFEF;stroke:#FFAC00;stroke-width:1.014;stroke-miterlimit:10;}
	.st3{fill:#3E3D3F;}
	.st4{enable-background:new    ;}
</style>
<g id="Grupo_10693" transform="translate(-199.065 -2818.937)">
	<path id="Trazado_5803" class="st0" d="M392.4,2818.9h-189c-2.4,0-4.3,1.9-4.3,4.3l0,0v73.4h91.3l7.5,7.5l7.5-7.5h91.3v-73.4
		C396.6,2820.8,394.7,2818.9,392.4,2818.9z"/>
	<path id="Trazado_5804" class="st1" d="M199.1,2894.6h91.3l7.5,7.5l7.5-7.5h91.3v-71.4c0-1-0.3-2-1-2.7L199.1,2894.6L199.1,2894.6z
		"/>
	<path id="Trazado_5805" class="st2" d="M271.1,2867.7l26-45l26,45H271.1z"/>
	<g id="Grupo_10692">
		<path id="Trazado_5806" class="st3" d="M299.1,2854.6H295l-0.6-14.8h5.3L299.1,2854.6z M294.5,2858.9c0-0.6,0.2-1.3,0.7-1.7
			c0.5-0.4,1.2-0.7,1.9-0.6c0.7-0.1,1.4,0.2,1.9,0.6c0.4,0.5,0.7,1.1,0.6,1.7c0,0.6-0.2,1.3-0.7,1.7c-0.5,0.4-1.2,0.7-1.9,0.6
			c-0.7,0-1.4-0.2-1.9-0.6C294.7,2860.2,294.4,2859.6,294.5,2858.9L294.5,2858.9z"/>
	</g>
	<g class="st4">
		<path class="st3" d="M242.8,2885.3V2873h3.3v12.3H242.8z"/>
		<path class="st3" d="M253.7,2885.3l-2.5-8.8h-0.1c0.1,1.5,0.2,2.7,0.2,3.5v5.3h-2.9V2873h4.4l2.6,8.7h0.1l2.5-8.7h4.4v12.3h-3
			v-5.4c0-0.3,0-0.6,0-0.9c0-0.3,0-1.2,0.1-2.5h-0.1l-2.5,8.8H253.7z"/>
		<path class="st3" d="M273.5,2876.9c0,1.4-0.4,2.4-1.2,3.2c-0.8,0.7-2,1.1-3.4,1.1h-0.9v4.1h-3.3V2873h4.2c1.6,0,2.7,0.3,3.5,1
			C273.1,2874.7,273.5,2875.7,273.5,2876.9z M267.9,2878.5h0.6c0.5,0,0.9-0.1,1.2-0.4c0.3-0.3,0.4-0.7,0.4-1.2
			c0-0.8-0.5-1.2-1.4-1.2h-0.9V2878.5z"/>
		<path class="st3" d="M286.5,2879.2c0,2.1-0.5,3.6-1.5,4.7c-1,1.1-2.5,1.6-4.4,1.6c-1.9,0-3.4-0.5-4.4-1.6s-1.5-2.7-1.5-4.7
			c0-2,0.5-3.6,1.5-4.7c1-1.1,2.5-1.6,4.5-1.6c2,0,3.4,0.5,4.4,1.6C286,2875.5,286.5,2877.1,286.5,2879.2z M278,2879.2
			c0,2.4,0.8,3.6,2.5,3.6c0.8,0,1.5-0.3,1.9-0.9c0.4-0.6,0.6-1.5,0.6-2.7c0-1.2-0.2-2.1-0.6-2.7c-0.4-0.6-1-0.9-1.8-0.9
			C278.9,2875.6,278,2876.8,278,2879.2z"/>
		<path class="st3" d="M291.6,2880.9v4.5h-3.3V2873h4c3.3,0,5,1.2,5,3.6c0,1.4-0.7,2.5-2.1,3.3l3.6,5.3H295l-2.6-4.5H291.6z
			 M291.6,2878.4h0.6c1.2,0,1.7-0.5,1.7-1.5c0-0.8-0.6-1.3-1.7-1.3h-0.7V2878.4z"/>
		<path class="st3" d="M304.9,2885.3h-3.3v-9.6h-3v-2.7h9.3v2.7h-3V2885.3z"/>
		<path class="st3" d="M316.7,2885.3l-0.6-2.3h-4l-0.6,2.3h-3.6l4-12.3h4.4l4.1,12.3H316.7z M315.4,2880.3l-0.5-2
			c-0.1-0.4-0.3-1-0.4-1.7c-0.2-0.7-0.3-1.2-0.3-1.5c-0.1,0.3-0.1,0.8-0.3,1.4c-0.1,0.7-0.5,1.9-1,3.9H315.4z"/>
		<path class="st3" d="M332.9,2885.3h-4.3l-4.5-8.6H324c0.1,1.4,0.2,2.4,0.2,3.1v5.5h-2.9V2873h4.3l4.5,8.5h0.1
			c-0.1-1.2-0.1-2.2-0.1-3v-5.5h3V2885.3z"/>
		<path class="st3" d="M340.6,2885.3h-3.3v-9.6h-3v-2.7h9.3v2.7h-3V2885.3z"/>
		<path class="st3" d="M352.2,2885.3h-7.3V2873h7.3v2.7h-4v1.9h3.7v2.7h-3.7v2.3h4V2885.3z"/>
	</g>
</g>
</svg>
