<?xml version="1.0" encoding="utf-8"?>
<!-- Generator: Adobe Illustrator 25.0.1, SVG Export Plug-In . SVG Version: 6.00 Build 0)  -->
<svg version="1.1" id="Capa_1" xmlns="http://www.w3.org/2000/svg" xmlns:xlink="http://www.w3.org/1999/xlink" x="0px" y="0px"
	 viewBox="0 0 300.6 173.7" style="enable-background:new 0 0 300.6 173.7;" xml:space="preserve">
<style type="text/css">
	.st0{fill:#EEEEEE;}
	.st1{enable-background:new    ;}
	.st2{fill:#977A6A;}
	.st3{fill:none;stroke:#977A6A;stroke-width:3;stroke-miterlimit:10;}
</style>
<path class="st0" d="M291.6,99.3h-84.5c5.8-9.8,9.1-21.2,9.1-33.4c0-36.4-29.5-65.9-65.9-65.9c-36.4,0-65.9,29.5-65.9,65.9
	c0,12.2,3.3,23.6,9.1,33.4H9c-5,0-9,4-9,9v56.4c0,5,4,9,9,9h282.6c5,0,9-4,9-9v-56.4C300.6,103.3,296.6,99.3,291.6,99.3z"/>
<g class="st1">
	<path class="st2" d="M27.6,117.6h10.1c2.5,0,4.7,0.5,6.6,1.4s3.4,2.3,4.5,4.1c1.1,1.7,1.6,3.8,1.6,6.1s-0.5,4.3-1.6,6.1
		c-1.1,1.7-2.5,3.1-4.5,4.1s-4.1,1.4-6.6,1.4H27.6V117.6z M37.5,137.1c1.7,0,3.2-0.3,4.5-1c1.3-0.6,2.3-1.6,3-2.8
		c0.7-1.2,1-2.6,1-4.2s-0.3-3-1-4.2s-1.7-2.1-3-2.8c-1.3-0.6-2.8-1-4.5-1h-5.6v15.8h5.6V137.1z"/>
	<path class="st2" d="M72.2,137.1v3.6H54.9v-23.1h16.9v3.6H59.2v6h11.2v3.5H59.2v6.4H72.2z"/>
	<path class="st2" d="M79,140.3c-1.7-0.5-3-1.2-3.9-2l1.5-3.3c0.9,0.7,2.1,1.4,3.5,1.8c1.4,0.5,2.8,0.7,4.1,0.7c1.7,0,3-0.3,3.8-0.8
		s1.3-1.3,1.3-2.2c0-0.7-0.2-1.2-0.7-1.6s-1.1-0.8-1.8-1s-1.7-0.5-3-0.8c-1.8-0.4-3.2-0.8-4.3-1.3s-2-1.1-2.8-2s-1.2-2.1-1.2-3.6
		c0-1.3,0.3-2.4,1-3.5s1.7-1.9,3.1-2.5c1.4-0.6,3.1-0.9,5.1-0.9c1.4,0,2.8,0.2,4.2,0.5c1.4,0.4,2.5,0.9,3.5,1.5l-1.4,3.3
		c-1-0.6-2.1-1-3.2-1.4c-1.1-0.3-2.2-0.5-3.2-0.5c-1.7,0-3,0.3-3.8,0.9s-1.2,1.3-1.2,2.3c0,0.7,0.2,1.2,0.7,1.6s1.1,0.7,1.8,1
		s1.7,0.5,3,0.8c1.7,0.4,3.1,0.8,4.2,1.2s2,1.1,2.8,2s1.2,2.1,1.2,3.6c0,1.3-0.3,2.4-1,3.5c-0.7,1-1.7,1.9-3.2,2.5
		c-1.4,0.6-3.1,0.9-5.1,0.9C82.3,141,80.6,140.8,79,140.3z"/>
	<path class="st2" d="M118.8,117.6l-10.1,23.1h-4.2l-10.1-23.1h4.7l7.7,17.8l7.8-17.8H118.8z"/>
	<path class="st2" d="M138.6,137.1v3.6h-17.3v-23.1h16.9v3.6h-12.6v6h11.2v3.5h-11.2v6.4H138.6z"/>
	<path class="st2" d="M163.9,117.6v23.1h-3.5l-12.7-15.6v15.6h-4.3v-23.1h3.5l12.7,15.6v-15.6H163.9z"/>
	<path class="st2" d="M174.8,121.2h-7.7v-3.6h19.6v3.6H179v19.5h-4.3L174.8,121.2L174.8,121.2z"/>
	<path class="st2" d="M203.8,135.4h-11.5l-2.3,5.3h-4.4l10.4-23.1h4.2l10.4,23.1h-4.5L203.8,135.4z M202.4,132l-4.4-10.1l-4.3,10.1
		H202.4z"/>
	<path class="st2" d="M213.6,140.2c-1.2-0.6-2.3-1.4-3.1-2.5l2.4-2.9c1.3,1.8,2.8,2.6,4.6,2.6c2.4,0,3.6-1.4,3.6-4.3v-11.9h-8.2
		v-3.6h12.5v15.3c0,2.7-0.7,4.7-2,6.1s-3.3,2-5.8,2C216.2,141,214.8,140.7,213.6,140.2z"/>
	<path class="st2" d="M245.9,135.4h-11.5l-2.3,5.3h-4.4l10.4-23.1h4.2l10.4,23.1h-4.5L245.9,135.4z M244.5,132l-4.4-10.1l-4.3,10.1
		H244.5z"/>
	<path class="st2" d="M257.6,140.3c-1.7-0.5-3-1.2-3.9-2l1.5-3.3c0.9,0.7,2.1,1.4,3.5,1.8c1.4,0.5,2.8,0.7,4.1,0.7
		c1.7,0,3-0.3,3.8-0.8s1.3-1.3,1.3-2.2c0-0.7-0.2-1.2-0.7-1.6s-1.1-0.8-1.8-1c-0.7-0.2-1.7-0.5-3-0.8c-1.8-0.4-3.2-0.8-4.3-1.3
		s-2-1.1-2.8-2s-1.2-2.1-1.2-3.6c0-1.3,0.3-2.4,1-3.5c0.7-1,1.7-1.9,3.1-2.5s3.1-0.9,5.1-0.9c1.4,0,2.8,0.2,4.2,0.5
		c1.4,0.4,2.5,0.9,3.5,1.5l-1.4,3.3c-1-0.6-2.1-1-3.2-1.4c-1.1-0.3-2.2-0.5-3.2-0.5c-1.7,0-3,0.3-3.8,0.9s-1.2,1.3-1.2,2.3
		c0,0.7,0.2,1.2,0.7,1.6s1.1,0.7,1.8,1c0.7,0.2,1.7,0.5,3,0.8c1.7,0.4,3.1,0.8,4.2,1.2c1.1,0.4,2,1.1,2.8,2s1.2,2.1,1.2,3.6
		c0,1.3-0.3,2.4-1,3.5c-0.7,1-1.7,1.9-3.2,2.5c-1.4,0.6-3.1,0.9-5.1,0.9C261,141,259.3,140.8,257.6,140.3z"/>
</g>
<line id="Línea_2" class="st3" x1="18.2" y1="158.6" x2="276.8" y2="158.6"/>
<path id="Trazado_4476" class="st2" d="M121.6,28.1c0.9,3.3-1,6.7-4.4,7.6c-0.5,0.1-1.1,0.2-1.6,0.2c1.2,1,1.3,2.7,0.3,3.9
	c-0.6,0.8-1.6,1.1-2.6,1c-1,5.1-4.7,9.2-9.7,10.9c-1.6,3-0.5,6.8,2.5,8.4l6.5,3.5c0.1,3.7,0.7,7.4,1.8,10.9c-1,1.8-1.8,3.8-2.4,5.8
	l-1,3.4c-0.9,3,0.8,6.1,3.8,7c2.6,0.8,5.3-0.4,6.5-2.7c0.1-0.1,0.1-0.2,0.2-0.3c13.7,16.6,38.3,19,54.9,5.3s19-38.3,5.3-54.9
	c-8.6-10.5-22.1-15.8-35.6-13.8c-0.7,0.1-1.2,0.8-1.1,1.5s0.8,1.2,1.5,1.1c19.5-2.8,37.7,10.5,40.9,30l-11.5-6.3l0,0l-9.6-5.2l0,0
	c-1.8-1-4-0.3-5,1.5l-0.1,0.2l-1.9-1c-1.3-0.7-2.3-1.9-2.8-3.3c-0.7-2.1-2.2-3.8-4.1-4.8L137,29.6c1.2-0.5,2.4-0.9,3.6-1.3
	c0.7-0.2,1.1-1,0.9-1.7l0,0c0-0.1-0.1-0.2-0.1-0.2c-0.3-0.6-1-0.8-1.6-0.6c-2,0.6-3.9,1.4-5.7,2.3l-4.3-2.4
	C127.1,23.9,123.3,25.1,121.6,28.1L121.6,28.1z M115.5,65.1l4.3,2.3l-1.5,1.7c-0.6,0.7-1.2,1.5-1.8,2.3
	C115.9,69.4,115.6,67.3,115.5,65.1z M143.6,98.3c-8.1-1.9-15.3-6.4-20.4-12.9c2.2-2.6,5.2-4.5,8.5-5.4l14-3.7
	c-0.6,1.7,0.1,3.5,1.7,4.4l9.8,5.3l0,0l14.1,7.7c-0.8,0.5-1.6,1-2.5,1.4C161.1,99.1,152.1,100.3,143.6,98.3L143.6,98.3z M164.5,47.7
	c0.2-0.1,0.5,0,0.7,0.1l0,0l8.4,4.6l-12.5,23.4c-0.3,0.7-0.1,1.5,0.6,1.8c0.6,0.3,1.4,0.1,1.8-0.5L176,53.7l12,6.5
	c0.9,12.3-4.5,24.3-14.3,31.7l-14.1-7.7l1.3-2.4c0.3-0.7,0.1-1.5-0.5-1.8c-0.7-0.4-1.5-0.1-1.8,0.5l-1.3,2.4l-8.6-4.7
	c-0.5-0.3-0.6-0.9-0.4-1.3l15.6-28.7C164.1,47.9,164.3,47.8,164.5,47.7L164.5,47.7z M126.1,27.7c0.9-0.3,1.9-0.2,2.7,0.3l5,2.7l0,0
	l17.7,9.6c1.3,0.7,2.3,1.9,2.8,3.3c0.7,2.1,2.2,3.8,4.1,4.8l1.9,1l-12.8,23.5l-16.4,4.4c-4.2,1.1-7.9,3.7-10.5,7.2l-0.1,0.1
	c-0.5,0.7-0.9,1.4-1.3,2.1c-0.8,1.4-2.5,1.9-4,1.2c-1.2-0.7-1.8-2.1-1.4-3.4l1-3.4c1.1-3.7,3-7.2,5.6-10.1l2.7-3l0,0l0,0
	c0,0,0,0,0-0.1c0.4-0.6,0.3-1.4-0.3-1.9c-0.1,0-0.1-0.1-0.2-0.1l-15.1-8.2c-1.7-0.9-2.4-3.1-1.5-4.8s3.1-2.4,4.8-1.5l0,0l1.3,0.7
	l0,0l2.9,1.6l0,0l0,0c0.7,0.3,1.5,0.1,1.8-0.6s0.1-1.5-0.6-1.8l-2.9-1.6c-1.7-0.9-2.3-3.1-1.4-4.8c0.9-1.7,3.1-2.3,4.8-1.4l4.2,2.3
	c0.6,0.4,1.5,0.1,1.8-0.5s0.1-1.5-0.5-1.8l0,0l-0.7-0.4l-2.3-1.2c-1.7-0.9-2.4-3.1-1.5-4.8s3.1-2.4,4.8-1.5l0,0l2.1,1.1l0,0l2.1,1.1
	c0.7,0.4,1.5,0.1,1.8-0.5s0.1-1.5-0.5-1.8l-0.7-0.4l0,0l-2.3-1.2c-1.7-0.9-2.4-3.1-1.4-4.8C124.4,28.5,125.2,27.9,126.1,27.7
	L126.1,27.7z"/>
</svg>
