<?xml version="1.0" encoding="utf-8"?>
<!-- Generator: Adobe Illustrator 25.0.1, SVG Export Plug-In . SVG Version: 6.00 Build 0)  -->
<svg version="1.1" id="Capa_1" xmlns="http://www.w3.org/2000/svg" xmlns:xlink="http://www.w3.org/1999/xlink" x="0px" y="0px"
	 viewBox="0 0 300.6 173.7" style="enable-background:new 0 0 300.6 173.7;" xml:space="preserve">
<style type="text/css">
	.st0{fill:#EEEEEE;}
	.st1{enable-background:new    ;}
	.st2{fill:#977A6A;}
	.st3{fill:none;stroke:#977A6A;stroke-width:3;stroke-miterlimit:10;}
</style>
<path class="st0" d="M291.6,99.3h-84.5c5.8-9.8,9.1-21.2,9.1-33.4c0-36.4-29.5-65.9-65.9-65.9c-36.4,0-65.9,29.5-65.9,65.9
	c0,12.2,3.3,23.6,9.1,33.4H9c-5,0-9,4-9,9v56.4c0,5,4,9,9,9h282.6c5,0,9-4,9-9v-56.4C300.6,103.3,296.6,99.3,291.6,99.3z"/>
<g class="st1">
	<path class="st2" d="M85.1,117.1L75,140.2h-4.2l-10.1-23.1h4.7l7.7,17.8l7.8-17.8H85.1z"/>
	<path class="st2" d="M104.8,136.6v3.6H87.5v-23.1h16.9v3.6H91.8v6H103v3.5H91.8v6.4H104.8z"/>
	<path class="st2" d="M130.1,117.1v23.1h-3.5l-12.7-15.6v15.6h-4.3v-23.1h3.5l12.7,15.6v-15.6H130.1z"/>
	<path class="st2" d="M141,120.7h-7.7v-3.6h19.6v3.6h-7.7v19.5h-4.3v-19.5H141z"/>
	<path class="st2" d="M170,134.9h-11.5l-2.3,5.3h-4.4l10.4-23.1h4.2l10.4,23.1h-4.5L170,134.9z M168.6,131.5l-4.4-10.1l-4.3,10.1
		H168.6z"/>
	<path class="st2" d="M179.8,139.7c-1.2-0.6-2.3-1.4-3.1-2.5l2.4-2.9c1.3,1.8,2.8,2.6,4.6,2.6c2.4,0,3.6-1.4,3.6-4.3v-11.9h-8.2
		v-3.6h12.5v15.3c0,2.7-0.7,4.7-2,6.1s-3.3,2-5.8,2C182.4,140.5,181,140.2,179.8,139.7z"/>
	<path class="st2" d="M212.1,134.9h-11.5l-2.3,5.3h-4.4l10.4-23.1h4.2l10.4,23.1h-4.5L212.1,134.9z M210.7,131.5l-4.4-10.1
		l-4.3,10.1H210.7z"/>
	<path class="st2" d="M223.9,139.8c-1.7-0.5-3-1.2-3.9-2l1.5-3.3c0.9,0.8,2.1,1.4,3.5,1.8c1.4,0.5,2.8,0.7,4.1,0.7
		c1.7,0,3-0.3,3.8-0.8s1.3-1.3,1.3-2.2c0-0.7-0.2-1.2-0.7-1.6s-1.1-0.8-1.8-1c-0.7-0.2-1.7-0.5-3-0.8c-1.8-0.4-3.2-0.8-4.3-1.3
		s-2-1.1-2.8-2s-1.2-2.1-1.2-3.6c0-1.3,0.3-2.4,1-3.5c0.7-1,1.7-1.9,3.1-2.5s3.1-0.9,5.1-0.9c1.4,0,2.8,0.2,4.2,0.5
		c1.4,0.4,2.5,0.9,3.5,1.5l-1.4,3.3c-1-0.6-2.1-1-3.2-1.4c-1.1-0.3-2.2-0.5-3.2-0.5c-1.7,0-3,0.3-3.8,0.9s-1.2,1.3-1.2,2.3
		c0,0.7,0.2,1.2,0.7,1.6s1.1,0.7,1.8,1c0.7,0.2,1.7,0.5,3,0.8c1.7,0.4,3.1,0.8,4.2,1.2c1.1,0.4,2,1.1,2.8,2s1.2,2.1,1.2,3.6
		c0,1.3-0.3,2.4-1,3.5c-0.7,1-1.7,1.9-3.2,2.5c-1.4,0.6-3.1,0.9-5.1,0.9C227.3,140.5,225.5,140.3,223.9,139.8z"/>
</g>
<line id="Línea_1" class="st3" x1="21.1" y1="158.1" x2="279.6" y2="158.1"/>
<path id="Trazado_4475" class="st2" d="M193.6,54.1c-3.4-0.8-5.5-4.1-4.7-7.4c0.1-0.5,0.3-1.1,0.6-1.5c-0.9-1.3-2.3-2.3-3.8-2.6
	c0.3-0.5,0.5-1.1,0.6-1.7c-4-3.3-5.9-8.5-5.1-13.6c-1.9-2.9-5.8-3.6-8.6-1.8l-6.2,4.1c-3.3-1.7-6.8-2.9-10.5-3.5
	c-1.1-1.8-2.5-3.4-4-4.8l-2.6-2.5c-2.2-2.2-5.7-2.1-7.9,0.1c-1.9,1.9-2.1,4.9-0.7,7.1c0.1,0.1,0.1,0.2,0.2,0.3
	c-21.1,4.3-34.7,24.9-30.5,46s24.9,34.7,46,30.5c13.3-2.7,24.3-12.2,28.9-25c0.3-0.7-0.1-1.5-0.8-1.7s-1.5,0.1-1.7,0.8l0,0
	c-6.7,18.5-26.9,28.3-45.6,22.1l10.9-7.2l0,0l0,0l9.1-6l0,0c1.7-1.1,2.1-3.4,1-5.1l0,0l-0.1-0.2l1.8-1.2c1.3-0.8,2.8-1.2,4.3-0.9
	c2.1,0.3,4.3-0.1,6.2-1.3l14.6-9.7c-0.1,1.3-0.3,2.5-0.5,3.8c-0.1,0.7,0.3,1.4,1.1,1.6l0,0c0.1,0,0.2,0,0.2,0c0.6,0,1.2-0.5,1.3-1.1
	c0.4-2,0.6-4.1,0.6-6.1l4.1-2.7C194.7,60.8,195.5,57,193.6,54.1L193.6,54.1z M163.7,31.3l-4.1,2.7l-0.8-2.2
	c-0.3-0.9-0.7-1.8-1.2-2.7C159.8,29.7,161.8,30.4,163.7,31.3L163.7,31.3z M121.3,40.6c5.4-6.3,12.8-10.5,21-12
	c1.3,3.2,1.6,6.7,0.8,10l-3.3,14.1c-1.2-1.3-3.2-1.5-4.7-0.5l-9.3,6.1l0,0l-13.4,8.8c-0.1-0.9-0.1-1.9-0.1-2.8
	C112.4,55.7,115.5,47.2,121.3,40.6z M156.2,82.8c-0.1,0.3-0.2,0.5-0.4,0.6l0,0l-8,5.3l-14.8-22c-0.4-0.6-1.3-0.7-1.9-0.3
	c-0.6,0.4-0.7,1.2-0.4,1.8l14.8,22l-11.4,7.5c-11.3-5-19.3-15.3-21.3-27.5l13.4-8.8l1.5,2.3c0.2,0.4,0.7,0.6,1.1,0.6
	c0.3,0,0.5-0.1,0.7-0.2c0.6-0.4,0.8-1.2,0.4-1.9l0,0l-1.5-2.3l8.1-5.4c0.2-0.1,0.5-0.2,0.7-0.1c0.3,0.1,0.5,0.2,0.6,0.4l18.1,27.3
	C156.2,82.3,156.2,82.5,156.2,82.8L156.2,82.8z M191.9,58.2c-0.2,0.9-0.7,1.7-1.5,2.2l-4.7,3.1l0,0l-16.8,11.1
	c-1.3,0.8-2.8,1.2-4.3,0.9c-2.1-0.3-4.3,0.1-6.2,1.3l-1.8,1.2l-14.8-22.3l3.8-16.5c1-4.3,0.5-8.7-1.4-12.6c0,0,0-0.1-0.1-0.1
	c-0.4-0.7-0.8-1.5-1.2-2.1c-0.9-1.3-0.5-3.2,0.8-4.1c1.1-0.8,2.7-0.6,3.6,0.3l2.6,2.5c2.8,2.7,4.9,6,6.3,9.6l1.4,3.8l0,0l0,0
	c0,0,0,0,0,0.1s0.1,0.1,0.1,0.2c0.4,0.6,1.2,0.8,1.9,0.4l14.3-9.5c1.6-1.1,3.8-0.6,4.9,1s0.6,3.8-1,4.9l-1.2,0.8l0,0l-2.8,1.8l0,0
	l0,0c-0.6,0.4-0.8,1.3-0.3,1.9c0.4,0.6,1.3,0.8,1.9,0.3l2.8-1.8c1.6-1.1,3.8-0.6,4.9,1s0.6,3.8-1,4.9l-4,2.7
	c-0.6,0.4-0.8,1.2-0.4,1.9c0.4,0.6,1.2,0.8,1.9,0.4l0,0l0.6-0.4l2.1-1.4c1.6-1.1,3.8-0.6,4.9,1s0.6,3.8-1,4.9l-2,1.3l0,0l-2,1.3
	c-0.6,0.4-0.8,1.2-0.4,1.9c0.4,0.6,1.2,0.8,1.9,0.4l0.6-0.4l0,0l2.1-1.4c1.6-1.1,3.8-0.6,4.9,1C191.9,56.4,192.1,57.3,191.9,58.2
	L191.9,58.2z"/>
</svg>
