<svg xmlns="http://www.w3.org/2000/svg" width="351.25" height="228.088" viewBox="0 0 351.25 228.088">
  <g id="Grupo_11926" data-name="Grupo 11926" transform="translate(-903.264 -1223.795)">
    <g id="Grupo_11904" data-name="Grupo 11904">
      <path id="Trazado_8627" data-name="Trazado 8627" d="M1159.232,1250.5a16.875,16.875,0,0,0,16.223,6.116l47.451,58.882a16.9,16.9,0,0,0,2.528,17.159c5.824,7.232,16.205,8.535,23.18,2.908a.609.609,0,0,0,.059-.055l-5.366-6.657-3.643,2.938-8.765-3.544-1.6-9.326,3.641-2.936-56.908-70.617-.031.085-12.524,1.757-7.89-9.79A17.019,17.019,0,0,0,1159.232,1250.5Z" fill="#4b616c"/>
      <path id="Trazado_8628" data-name="Trazado 8628" d="M1180.367,1233.59l-4.339,11.781,56.908,70.617,3.522-2.837,8.766,3.547.8,4.661,2.993,3.713-2.993-3.713.8,4.66-3.518,2.837,5.366,6.657c6.916-5.632,7.822-16.018,2.015-23.224a16.888,16.888,0,0,0-16.224-6.111l-47.453-58.881a17.128,17.128,0,0,0-14.531-23.5Z" fill="#3c4e57"/>
    </g>
    <g id="_8" data-name="8">
      <g id="Grupo_11916" data-name="Grupo 11916">
        <g id="Grupo_11908" data-name="Grupo 11908">
          <g id="Grupo_11907" data-name="Grupo 11907">
            <path id="Trazado_8629" data-name="Trazado 8629" d="M1198.75,1259.343H1036.415c-9.607,0-17.392,8.073-17.392,18.029v120.812c0,9.957,7.785,18.029,17.389,18.029H1198.75c9.6,0,17.391-8.072,17.391-18.029V1277.372C1216.141,1267.416,1208.355,1259.343,1198.75,1259.343Z" fill="#e4f4ff"/>
            <path id="Trazado_8630" data-name="Trazado 8630" d="M1206.93,1259.343h-178.7c-5.086,0-9.211,5.285-9.211,11.808v133.254c0,6.523,4.125,11.808,9.211,11.808h178.7c5.086,0,9.211-5.285,9.211-11.808V1271.151C1216.141,1264.628,1212.016,1259.343,1206.93,1259.343Zm2.716,135.647c0,6.52-4.125,11.808-9.211,11.808H1034.729c-5.089,0-9.211-5.288-9.211-11.808V1276.32c0-6.523,4.122-11.808,9.211-11.808h165.706c5.086,0,9.211,5.285,9.211,11.808Z" fill="#62767f"/>
            <g id="Grupo_11906" data-name="Grupo 11906">
              <g id="Grupo_11905" data-name="Grupo 11905">
                <path id="Trazado_8631" data-name="Trazado 8631" d="M1101.7,1316.263c-10.849.708-19.444,10.062-19.444,21.489,0,11.894,9.308,21.543,20.781,21.543,10.554,0,19.265-8.155,20.6-18.72H1101.7Z" fill="#f9773d"/>
                <path id="Trazado_8632" data-name="Trazado 8632" d="M1104.673,1316.277V1337.5h19.14C1123.694,1326.287,1115.307,1317.131,1104.673,1316.277Z" fill="#a4b5bc"/>
              </g>
            </g>
          </g>
        </g>
        <g id="Grupo_11909" data-name="Grupo 11909">
          <rect id="Rectángulo_6405" data-name="Rectángulo 6405" width="40.181" height="3.271" transform="translate(1035.271 1376.632)" fill="#bdcdd6"/>
          <rect id="Rectángulo_6406" data-name="Rectángulo 6406" width="40.181" height="3.271" transform="translate(1035.271 1382.121)" fill="#bdcdd6"/>
          <rect id="Rectángulo_6407" data-name="Rectángulo 6407" width="40.181" height="3.271" transform="translate(1035.271 1387.613)" fill="#bdcdd6"/>
          <rect id="Rectángulo_6408" data-name="Rectángulo 6408" width="40.181" height="3.271" transform="translate(1035.271 1393.103)" fill="#bdcdd6"/>
        </g>
        <g id="Grupo_11910" data-name="Grupo 11910">
          <path id="Trazado_8633" data-name="Trazado 8633" d="M1115,1318.1a7.042,7.042,0,0,1,1.34,1.331l17.234-36.26h26.489V1281.3h-27.611Z" fill="#67787f"/>
        </g>
        <g id="Grupo_11911" data-name="Grupo 11911">
          <path id="Trazado_8634" data-name="Trazado 8634" d="M1123.642,1329.5a6.747,6.747,0,0,1,.862,2.733l16.82-35.728h18.742v-1.862H1140.2Z" fill="#67787f"/>
        </g>
        <rect id="Rectángulo_6409" data-name="Rectángulo 6409" width="35.935" height="6.059" transform="translate(1165.456 1279.207)" fill="#f9773d"/>
        <rect id="Rectángulo_6410" data-name="Rectángulo 6410" width="35.935" height="6.059" transform="translate(1165.456 1292.548)" fill="#f9773d"/>
        <rect id="Rectángulo_6411" data-name="Rectángulo 6411" width="43.4" height="3.533" transform="translate(1161.723 1313.992)" fill="#889da7"/>
        <rect id="Rectángulo_6412" data-name="Rectángulo 6412" width="43.4" height="3.531" transform="translate(1161.723 1319.924)" fill="#889da7"/>
        <rect id="Rectángulo_6413" data-name="Rectángulo 6413" width="43.4" height="3.533" transform="translate(1161.723 1325.853)" fill="#889da7"/>
        <rect id="Rectángulo_6414" data-name="Rectángulo 6414" width="43.4" height="3.531" transform="translate(1161.723 1331.784)" fill="#889da7"/>
        <rect id="Rectángulo_6415" data-name="Rectángulo 6415" width="43.4" height="3.531" transform="translate(1161.723 1337.716)" fill="#889da7"/>
        <g id="Grupo_11912" data-name="Grupo 11912">
          <rect id="Rectángulo_6416" data-name="Rectángulo 6416" width="43.4" height="3.531" transform="translate(1161.723 1308.064)" fill="#bdcdd6"/>
          <rect id="Rectángulo_6417" data-name="Rectángulo 6417" width="43.4" height="3.533" transform="translate(1161.723 1313.992)" fill="#bdcdd6"/>
          <rect id="Rectángulo_6418" data-name="Rectángulo 6418" width="43.4" height="3.531" transform="translate(1161.723 1319.924)" fill="#bdcdd6"/>
          <rect id="Rectángulo_6419" data-name="Rectángulo 6419" width="43.4" height="3.533" transform="translate(1161.723 1325.853)" fill="#bdcdd6"/>
          <rect id="Rectángulo_6420" data-name="Rectángulo 6420" width="43.4" height="3.531" transform="translate(1161.723 1331.784)" fill="#bdcdd6"/>
          <rect id="Rectángulo_6421" data-name="Rectángulo 6421" width="43.4" height="3.531" transform="translate(1161.723 1337.716)" fill="#bdcdd6"/>
          <rect id="Rectángulo_6422" data-name="Rectángulo 6422" width="43.4" height="3.533" transform="translate(1161.723 1343.645)" fill="#bdcdd6"/>
        </g>
        <g id="Grupo_11913" data-name="Grupo 11913">
          <path id="Trazado_8635" data-name="Trazado 8635" d="M1055.361,1332.66h12.178V1287h-8.1C1061.42,1298.792,1060.486,1313.578,1055.361,1332.66Z" fill="#bdcdd6"/>
          <path id="Trazado_8636" data-name="Trazado 8636" d="M1076.971,1287h-9.432v45.662h13.513C1075.927,1313.578,1074.993,1298.792,1076.971,1287Z" fill="#a4b5bc"/>
        </g>
        <g id="Grupo_11914" data-name="Grupo 11914">
          <path id="Trazado_8637" data-name="Trazado 8637" d="M1033.132,1364.528h12.178v-45.665h-8.1C1039.191,1330.657,1038.257,1345.443,1033.132,1364.528Z" fill="#bdcdd6"/>
          <path id="Trazado_8638" data-name="Trazado 8638" d="M1054.742,1318.863h-9.432v45.665h13.513C1053.7,1345.443,1052.764,1330.657,1054.742,1318.863Z" fill="#a4b5bc"/>
        </g>
        <path id="Trazado_8639" data-name="Trazado 8639" d="M1084.7,1275.74c.152-.089.232-.257.354-.39-.055-.008-.1-.044-.155-.05C1084.837,1275.447,1084.77,1275.593,1084.7,1275.74Z" fill="#bdcdd6"/>
        <path id="Trazado_8640" data-name="Trazado 8640" d="M1085.058,1275.35c-.122.133-.2.3-.354.39.066-.147.133-.293.2-.44.055.006.1.042.155.05a1.967,1.967,0,0,0-.636-3.257,2.581,2.581,0,0,0-2.4.428,8.1,8.1,0,0,0-1.73,1.909,1.441,1.441,0,0,0-1.221-1.749,3.012,3.012,0,0,0-2.191.815,8.711,8.711,0,0,0-3.044,4.962c-3.816-.688-4.658,3.539-5.481,6.451-.136.481-.263.97-.387,1.473a10.867,10.867,0,0,1,6.462-4.4c1.914-.5,3.909-.586,5.777-1.285a5.357,5.357,0,0,1,2.041-.525,8.235,8.235,0,0,0,2.379.011,3.012,3.012,0,0,0,2.111-2.431A2.224,2.224,0,0,0,1085.058,1275.35Z" fill="#bdcdd6"/>
        <g id="Grupo_11915" data-name="Grupo 11915">
          <path id="Trazado_8641" data-name="Trazado 8641" d="M1137.091,1365.6h-14.775v31.326h32.045v-14.7h8.492v14.7h3.5V1365.6h-29.266Zm-7.02,25.793h-3.785v-4.219h3.785Zm0-5.3h-3.785v-4.061h3.785Zm.033-8.429h-3.818v-3.837h3.818Zm0-4.923h-3.818v-4.44h3.818Zm4.674,18.654h-3.66v-4.219h3.66Zm0-5.3h-3.66v-4.061h3.66Zm0-8.429h-3.627v-3.837h3.627Zm0-4.923h-3.627v-4.44h3.627Zm9.236,18.654h-3.691v-4.219h3.691Zm0-5.3h-3.691v-4.061h3.691Zm.034-8.429h-3.725v-3.837h3.725Zm0-4.923h-3.725v-4.44h3.725Zm4.768,18.654h-3.755v-4.219h3.755Zm0-5.3h-3.755v-4.061h3.755Zm0-8.429h-3.724v-3.837h3.724Zm0-4.923h-3.724v-4.44h3.724Zm10.219-4.44h3.818v4.44h-3.818Zm0,5.526h3.818v3.837h-3.818Zm-4.674-5.526h3.627v4.44h-3.627Zm0,5.526h3.627v3.837h-3.627Z" fill="#a4b5bc"/>
          <path id="Trazado_8642" data-name="Trazado 8642" d="M1137.091,1397.758h-16.936v3.906h48.828v-3.906h-31.893Z" fill="#a4b5bc"/>
          <path id="Trazado_8643" data-name="Trazado 8643" d="M1160.865,1356.08v4.229h-6.531v-4.229h-29.661l-4.484,7.517h48.782l-4.484-7.517Z" fill="#a4b5bc"/>
          <rect id="Rectángulo_6423" data-name="Rectángulo 6423" width="4.49" height="6.829" transform="translate(1155.352 1352.798)" fill="#a4b5bc"/>
          <rect id="Rectángulo_6424" data-name="Rectángulo 6424" width="6.669" height="14.032" transform="translate(1155.192 1382.964)" fill="#a4b5bc"/>
          <path id="Trazado_8644" data-name="Trazado 8644" d="M1168.7,1363.929h-48.143v1.047h46.964v31.465h2.873v-1.3h-1.682Z" fill="#a4b5bc"/>
        </g>
        <path id="Trazado_8645" data-name="Trazado 8645" d="M1109.762,1372.686a1.74,1.74,0,0,0,.2-2.533,1.6,1.6,0,0,0-2.425.379c-.059-1.067-.02-2.028-1.058-2.6a1.631,1.631,0,0,0-1.515-.075,2.74,2.74,0,0,0-1.433,1.97,2.049,2.049,0,0,0-1.357-.51,2.176,2.176,0,0,0-1.793.853,2.487,2.487,0,0,0,.484,3.229c-1.661.564-2.7.595-3.023,2.6-.124.78-.038,3.578,1.412,2.755a2.195,2.195,0,0,0-1.078,2.475,2.033,2.033,0,0,0,2.36,1.379c.11,2.128,2.265,2.285,3.771,1.765a.429.429,0,0,0,.055-.022v10.134h-2.846a1.232,1.232,0,0,0-1.234,1.323h9.614a1.233,1.233,0,0,0-1.235-1.323H1105.6v-10.631c.232.085.3.4.578.461.726.152,1.314.456,1.986-.132a1.889,1.889,0,0,0,.033-2.666,2.277,2.277,0,0,0,2.464-1.622c.351-1-.2-1.6-.829-2.238-.008-.168-.013-.34-.022-.508a2.29,2.29,0,0,0-.044-4.457Z" fill="#bdcdd6"/>
        <path id="Trazado_8646" data-name="Trazado 8646" d="M1092.708,1371.794a2.235,2.235,0,0,0,.251-3.252,2.058,2.058,0,0,0-3.111.487c-.077-1.37-.025-2.6-1.359-3.341a2.084,2.084,0,0,0-1.942-.1,3.5,3.5,0,0,0-1.837,2.525,2.663,2.663,0,0,0-1.744-.655,2.8,2.8,0,0,0-2.3,1.1,3.187,3.187,0,0,0,.622,4.141c-2.133.721-3.471.76-3.879,3.332-.161,1-.05,4.592,1.809,3.536a2.821,2.821,0,0,0-1.384,3.178,2.608,2.608,0,0,0,3.028,1.765c.144,2.732,2.907,2.934,4.841,2.268.022-.008.049-.02.071-.03v13h-3.652a1.582,1.582,0,0,0-1.583,1.7h12.339a1.583,1.583,0,0,0-1.586-1.7h-3.929v-13.64c.3.111.384.517.74.592.932.193,1.688.585,2.55-.172a2.426,2.426,0,0,0,.042-3.423,2.917,2.917,0,0,0,3.163-2.078c.45-1.287-.265-2.063-1.064-2.87-.008-.218-.019-.436-.027-.655a2.937,2.937,0,0,0-.058-5.716Z" fill="#a4b5bc"/>
        <path id="Trazado_8647" data-name="Trazado 8647" d="M1056.1,1280.082a3.9,3.9,0,0,0-4.357-1.356,5.587,5.587,0,0,0-3.318,3.459,9.623,9.623,0,0,0-.279,4.97c-10.871,1.476-7.194,21.226-7.26,29.075,1.536-3.163,3.108-6.313,4.608-9.495.848-1.8,3.829-5.868,3.829-7.689,1.934-2.97,5.506-3.44,6.835-7.133a8.765,8.765,0,0,0-.729-7.371A3.333,3.333,0,0,0,1056.1,1280.082Z" fill="#bdcdd6"/>
        <path id="Trazado_8648" data-name="Trazado 8648" d="M1189.732,1364.815l1.511-1.179-1.16-2.326-1.79.591a6.593,6.593,0,0,0-.981-.939l.423-1.887-2.332-1.011-.995,1.635a6.05,6.05,0,0,0-1.348-.066l-.84-1.713-.069.022-2.343.754.249,1.912a6.347,6.347,0,0,0-1.072.854l-1.708-.754-1.364,2.2,1.384,1.307a6.819,6.819,0,0,0-.287,1.356l-1.788.564.321,2.6,1.889.08a6.935,6.935,0,0,0,.611,1.213l-1.03,1.638,1.856,1.776,1.511-1.209a6.469,6.469,0,0,0,1.2.516l.229,1.962,2.522.121.21-.989.2-.953c.2-.044.409-.1.614-.163s.42-.149.624-.24l1.4,1.353,2.009-1.585-.89-1.76a6.9,6.9,0,0,0,.7-1.133l1.9.1.556-2.556-1.76-.745A6.673,6.673,0,0,0,1189.732,1364.815Zm-5.1,5.5a4.138,4.138,0,0,1-.6.136,4.022,4.022,0,0,1-4.445-2.882,4.207,4.207,0,0,1,2.647-5.227,3.758,3.758,0,0,1,.558-.13,4.014,4.014,0,0,1,4.484,2.874A4.206,4.206,0,0,1,1184.632,1370.313Z" fill="#bdcdd6"/>
        <path id="Trazado_8649" data-name="Trazado 8649" d="M1097.385,1298.654l1.658-1.291-1.271-2.555-1.967.649a7.183,7.183,0,0,0-1.078-1.03l.464-2.072-2.558-1.111-1.094,1.793a6.961,6.961,0,0,0-1.481-.072l-.92-1.881-.077.025-2.572.831.273,2.1a7.059,7.059,0,0,0-1.179.937l-1.874-.826-1.5,2.417,1.519,1.436a7.529,7.529,0,0,0-.314,1.49l-1.965.619.354,2.851,2.075.088a7.392,7.392,0,0,0,.671,1.329l-1.132,1.8,2.038,1.948,1.658-1.326a7.307,7.307,0,0,0,1.323.566l.252,2.15,2.771.138.229-1.089.219-1.047c.223-.049.449-.108.673-.18s.462-.163.686-.259l1.53,1.486,2.207-1.743-.977-1.931a7.41,7.41,0,0,0,.77-1.243l2.089.113.611-2.8-1.931-.821A7.679,7.679,0,0,0,1097.385,1298.654Zm-5.6,6.039a4.686,4.686,0,0,1-.655.149,4.415,4.415,0,0,1-4.881-3.163,4.619,4.619,0,0,1,2.908-5.741,4.407,4.407,0,0,1,5.535,3.014A4.62,4.62,0,0,1,1091.785,1304.693Z" fill="#bdcdd6"/>
        <path id="Trazado_8650" data-name="Trazado 8650" d="M1197.833,1381.892l1.48-1.155-1.135-2.282-1.758.58a6.56,6.56,0,0,0-.964-.923l.415-1.85-2.285-.992-.978,1.6a6.017,6.017,0,0,0-1.323-.063l-.824-1.683-.069.022-2.3.743.245,1.873a6.607,6.607,0,0,0-1.055.838l-1.674-.738-1.337,2.16,1.359,1.282a6.719,6.719,0,0,0-.284,1.335l-1.754.55.314,2.547,1.854.08a6.555,6.555,0,0,0,.6,1.191l-1.011,1.608,1.818,1.743,1.484-1.185a6.361,6.361,0,0,0,1.182.505l.227,1.923,2.475.122.2-.973.2-.934c.2-.047.4-.1.6-.163s.414-.146.614-.232l1.37,1.329,1.97-1.558-.873-1.727a6.826,6.826,0,0,0,.688-1.11l1.867.1.545-2.506-1.724-.735A6.963,6.963,0,0,0,1197.833,1381.892Zm-5.007,5.4a3.936,3.936,0,0,1-4.945-2.694,4.126,4.126,0,0,1,2.6-5.13,3.853,3.853,0,0,1,.547-.128,3.939,3.939,0,0,1,4.4,2.821A4.127,4.127,0,0,1,1192.826,1387.288Z" fill="#a4b5bc"/>
      </g>
      <g id="Grupo_11925" data-name="Grupo 11925">
        <g id="Grupo_11922" data-name="Grupo 11922">
          <g id="Grupo_11919" data-name="Grupo 11919">
            <path id="Trazado_8651" data-name="Trazado 8651" d="M949.526,1348.264l1.495,1.542c-.2-.222-.392-.442-.588-.669A9.119,9.119,0,0,0,949.526,1348.264Z" fill="#dba18f"/>
            <path id="Trazado_8652" data-name="Trazado 8652" d="M955.547,1353.79a11.278,11.278,0,0,1-2.258-1.639l6.96,7.2V1354.4A9.446,9.446,0,0,1,955.547,1353.79Z" fill="#dbac90"/>
            <path id="Trazado_8653" data-name="Trazado 8653" d="M947.477,1346.7c.7.506,1.4,1,2.049,1.561l-2.049-2.122Z" fill="#f9cfb3"/>
            <path id="Trazado_8654" data-name="Trazado 8654" d="M953.289,1352.151l-2.268-2.343A27.628,27.628,0,0,0,953.289,1352.151Z" fill="#f9cfb3"/>
            <g id="Grupo_11917" data-name="Grupo 11917">
              <path id="Trazado_8655" data-name="Trazado 8655" d="M982.016,1319.468c-.544.417-.279,1.445-.782,1.79-.019.011-.03.009-.047.02-.146.505-.295,1.005-.431,1.464h-1.713a34.964,34.964,0,0,1,.279-4.282c.02-.76.042-1.52.056-2.277a119.482,119.482,0,0,1-19.129,1.067V1354.4h.022a9.487,9.487,0,0,0,4.721-.613,18.871,18.871,0,0,0,5.117-4.653,26.5,26.5,0,0,1,3.74-3.031,8.931,8.931,0,0,0,1.871-1.878,10.468,10.468,0,0,0,1.508-3.294c.486-1.787.271-4.6,1.575-6.031,1.177-1.292,2.351-1.8,3.194-3.591a21.9,21.9,0,0,0,1.76-10.2C983.71,1320.153,983.215,1318.548,982.016,1319.468Z" fill="#e6b494"/>
              <path id="Trazado_8656" data-name="Trazado 8656" d="M941.081,1317.894a33.025,33.025,0,0,0-.044,3.643c.014.276.033.727.011,1.2h-2.191c-.008-.395.011-.757.019-.995.02-.558.02-1.066,0-1.564a1.142,1.142,0,0,0-.356-.715c-1.2-.92-1.694.685-1.741,1.641a21.928,21.928,0,0,0,1.76,10.2c.842,1.788,2.019,2.3,3.2,3.591,1.3,1.434,1.089,4.244,1.573,6.031a10.538,10.538,0,0,0,1.508,3.294,10.95,10.95,0,0,0,2.658,2.475v-.561l2.049,2.122h0a9.119,9.119,0,0,1,.907.873c.2.227.392.447.588.669v0l2.268,2.343h0a11.278,11.278,0,0,0,2.258,1.639,9.446,9.446,0,0,0,4.7.613V1317.25c-11.6-.4-17.032-3.039-19.129-4.465C940.982,1314.468,941.167,1316.2,941.081,1317.894Z" fill="#f9cfb3"/>
              <path id="Trazado_8657" data-name="Trazado 8657" d="M949.507,1304.511a9.1,9.1,0,0,0-8.377,8.111c-.007.055-.005.108-.01.163,2.1,1.426,7.525,4.067,19.129,4.465V1304.8a9.765,9.765,0,0,1-1.525.119C955.651,1304.914,952.574,1304.259,949.507,1304.511Z" fill="#e8bb95"/>
              <path id="Trazado_8658" data-name="Trazado 8658" d="M970.109,1301.947c-.473-.3-1.169-1.07-1.713-1.213-.837-.221-.359-.155-1.163.365-2.561,1.652-4.194,3.268-6.984,3.7v12.449a119.482,119.482,0,0,0,19.129-1.067,29.8,29.8,0,0,0-.492-6.826C978.066,1305.544,972.951,1303.753,970.109,1301.947Z" fill="#d5a378"/>
              <path id="Trazado_8659" data-name="Trazado 8659" d="M968.238,1285.981c-.168.022-2.157.207-1.906.442-1.047-.978-2.884-1.047-4.18-1.368a12.889,12.889,0,0,0-1.9-.3V1304.8c2.79-.434,4.423-2.05,6.984-3.7.8-.52.326-.586,1.163-.365.544.143,1.24.912,1.713,1.213,2.842,1.806,7.957,3.6,8.777,7.41a29.8,29.8,0,0,1,.492,6.826c-.014.757-.036,1.517-.056,2.277a34.964,34.964,0,0,0-.279,4.282h1.713c.136-.459.285-.959.431-1.464.445-1.525.893-3.117,1.028-3.843a52.1,52.1,0,0,0,.727-7.217c.618-5.837.928-11.426-2.542-16.322C976.684,1288.655,971.178,1285.592,968.238,1285.981Z" fill="#2a2722"/>
              <path id="Trazado_8660" data-name="Trazado 8660" d="M941.509,1292.551c-5.293,5.017-4.509,11.471-3.909,17.667a39.345,39.345,0,0,0,.768,6.62,13.407,13.407,0,0,1,.511,3.345c.017.5.017,1.006,0,1.564-.008.238-.027.6-.019.995h2.191c.022-.478,0-.929-.011-1.2a33.025,33.025,0,0,1,.044-3.643c.086-1.692-.1-3.426.039-5.109.005-.055,0-.108.01-.163a9.1,9.1,0,0,1,8.377-8.111c3.067-.252,6.144.4,9.217.409a9.765,9.765,0,0,0,1.525-.119v-20.044C953.709,1284.169,946.073,1288.224,941.509,1292.551Z" fill="#3d3b36"/>
            </g>
            <g id="Grupo_11918" data-name="Grupo 11918">
              <path id="Trazado_8661" data-name="Trazado 8661" d="M951.021,1349.808l-1.495-1.544c-.649-.561-1.354-1.055-2.049-1.561v6.669l12.772,11.946v-5.97l-6.96-7.2A27.628,27.628,0,0,1,951.021,1349.808Z" fill="#e8bb95"/>
              <path id="Trazado_8662" data-name="Trazado 8662" d="M960.249,1365.318l.044.042a.507.507,0,0,0,.7,0l2.663-2.489-3.409-3.523Z" fill="#d5a378"/>
              <path id="Trazado_8663" data-name="Trazado 8663" d="M964.992,1353.79a9.487,9.487,0,0,1-4.721.613h-.022v4.945l3.409,3.523,10.191-9.535v-7.23a26.5,26.5,0,0,0-3.74,3.031A18.871,18.871,0,0,1,964.992,1353.79Z" fill="#c89374"/>
              <path id="Trazado_8664" data-name="Trazado 8664" d="M956.79,1371.416l-5.266,7.68,2.146,6.611,1.479,5.039,3.174-14.932a2.865,2.865,0,0,0-.251-1.9Z" fill="#bad1dd"/>
              <path id="Trazado_8665" data-name="Trazado 8665" d="M963.216,1373.919a2.84,2.84,0,0,0-.249,1.9l3.1,14.606,1.547-4.713,2-6.177.135-.451-5.254-7.663Z" fill="#9ab9ca"/>
              <path id="Trazado_8666" data-name="Trazado 8666" d="M963.216,1373.919l1.285-2.5-1.3-1.9-2.066-3.014h-.881v41.62l.008.025,5.813-17.726-3.1-14.606A2.84,2.84,0,0,1,963.216,1373.919Z" fill="#4b616c"/>
              <path id="Trazado_8667" data-name="Trazado 8667" d="M960.249,1366.388c-.008.011-.023.016-.033.03l-.059.083-1.24,1.812-2.127,3.1,1.282,2.5a2.865,2.865,0,0,1,.251,1.9l-3.174,14.932,5.1,17.375V1366.5h.881l-.058-.083A.508.508,0,0,0,960.249,1366.388Z" fill="#62767f"/>
              <path id="Trazado_8668" data-name="Trazado 8668" d="M936.89,1375.69l6.843-3-7.874-4.014a60.9,60.9,0,0,1,2.255-6.061c-9.43,2.964-24.229,7.478-24.528,7.862-8.777,11.3-10.277,62.858-10.322,81.4h57.3l-.315-29.627Z" fill="#303e43"/>
              <path id="Trazado_8669" data-name="Trazado 8669" d="M1015.713,1422.256c-.737-23.315-.79-44.909-8.006-51.777-.357-.337-15.107-4.9-24.536-7.862a58.112,58.112,0,0,1,2.257,6.061l-7.877,4.014,6.852,3-23.939,47-.215-.431v.881c.011,0,.016,23.831.019,28.746h54.177l46.011-38.833-12.629-20.712Z" fill="#25343a"/>
              <path id="Trazado_8670" data-name="Trazado 8670" d="M969.62,1379.53l.144-.439-.008-.011Z" fill="#4b616c"/>
              <path id="Trazado_8671" data-name="Trazado 8671" d="M973.849,1353.336l-10.191,9.535-2.663,2.489a.507.507,0,0,1-.7,0l-.044-.042v.7a1.571,1.571,0,0,1,.179-.163c.453-.314.854.213,1.086.65h-.384l2.066,3.014,1.3,1.9,5.254,7.663.009.012.781-2.409,5.316-16.345c.163.05.378.119.619.194l-2.429-7.38Z" fill="#c1daec"/>
              <path id="Trazado_8672" data-name="Trazado 8672" d="M960.428,1365.851a1.571,1.571,0,0,0-.179.163v-.7l-12.772-11.946-.238-.221-2.431,7.38.624-.194,4.589,14.142.8,2.465.7,2.152,5.266-7.68,2.127-3.1,1.24-1.812.059-.083c.01-.014.025-.019.033-.03a.508.508,0,0,1,.823.03l.058.083h.384C961.282,1366.064,960.881,1365.537,960.428,1365.851Z" fill="#e4f4ff"/>
              <path id="Trazado_8673" data-name="Trazado 8673" d="M953.67,1385.707l-2.146-6.611-.7-2.152-.8-2.465-4.589-14.142-.624.194c-1.312.406-3.732,1.163-6.694,2.086a60.9,60.9,0,0,0-2.255,6.061l7.874,4.014-6.843,3,23.359,46.566v-14.135l-5.1-17.375Z" fill="#25343a"/>
              <path id="Trazado_8674" data-name="Trazado 8674" d="M983.171,1362.617c-2.951-.923-5.376-1.677-6.691-2.086-.241-.075-.456-.144-.619-.194l-5.316,16.345-.781,2.409-.144.439-2,6.177-1.547,4.713-5.813,17.726-.008-.025v14.135l.215.431,23.939-47-6.852-3,7.877-4.014A58.112,58.112,0,0,0,983.171,1362.617Z" fill="#303e43"/>
            </g>
            <path id="Trazado_8675" data-name="Trazado 8675" d="M926.209,1451.612l-1.9-39.786v39.786Z" fill="#4b616c"/>
          </g>
          <path id="Trazado_8676" data-name="Trazado 8676" d="M994.38,1451.883H996.3l-1.917-40.057Z" fill="#303e43"/>
          <path id="Trazado_8677" data-name="Trazado 8677" d="M980.455,1320.129l-1.784,2.726a4.66,4.66,0,0,0-.6-.857c-1.406-1.571-4.067-2.475-7.3-2.475a15.411,15.411,0,0,0-8.618,2.918c-.911.483-4.672.091-4.672.091-1.607-2.072-5.406-3.009-8.572-3.009-3.23,0-5.89.9-7.3,2.475a4.654,4.654,0,0,0-.6.857l-1.862-3.542-.371,1.849,1.686,3.442a5.211,5.211,0,0,0-.019.912c.334,4.531,4.533,6.9,8.512,6.9.107,0,.215,0,.325-.005a9.639,9.639,0,0,0,2.18-.326,9.756,9.756,0,0,0,6.54-6.136,3.6,3.6,0,0,0,.243-1.271,5.22,5.22,0,0,0,3.18,0,3.582,3.582,0,0,0,.243,1.271,9.753,9.753,0,0,0,6.539,6.136,9.639,9.639,0,0,0,2.18.326c.108,0,.218.005.326.005,3.978,0,8.18-2.37,8.512-6.9a5.314,5.314,0,0,0-.019-.912l1.917-2.628Zm-24.077,5.16a7.812,7.812,0,0,1-7.142,5.305l-.267,0c-3.17,0-6.509-1.794-6.761-5.219a2.763,2.763,0,0,1,.7-2.142c1.061-1.182,3.307-1.889,6.009-1.889,3.3,0,6.371,1.036,7.313,2.464A1.519,1.519,0,0,1,956.378,1325.289Zm14.347,5.308-.268,0a7.812,7.812,0,0,1-7.142-5.305,1.522,1.522,0,0,1,.15-1.478c.942-1.428,4.016-2.464,7.313-2.464,2.7,0,4.948.707,6.008,1.889a2.756,2.756,0,0,1,.7,2.142C977.234,1328.8,973.9,1330.6,970.725,1330.6Z" fill="#455256"/>
          <g id="Grupo_11920" data-name="Grupo 11920">
            <path id="Trazado_8678" data-name="Trazado 8678" d="M974.952,1285.417l.027-.044s-.069-.094-.207-.257C974.875,1285.282,974.924,1285.37,974.952,1285.417Z" fill="#ecbb1a"/>
            <path id="Trazado_8679" data-name="Trazado 8679" d="M976.336,1288.117c-.641-.487-1.332-.931-2.022-1.36l-.2.4a27.377,27.377,0,0,1,2.177,1.981c-3.536,5.668-6.8,12.744-9.661,18.6,3.511-10.6,6.462-18.176,7.6-21.033-.033-.022-.066-.047-.1-.066l.318-.472c.179-.448.285-.7.285-.7s.005-.124.038-.346c-.911-.942-4.879-4.561-14.512-5.116l-.009,0,0,32.3a183.975,183.975,0,0,0,26.724-1.981c0-.066.01-.132.01-.2A25.808,25.808,0,0,0,976.336,1288.117Z" fill="#ecbb1a"/>
            <path id="Trazado_8680" data-name="Trazado 8680" d="M987.873,1310.183a184.306,184.306,0,0,1-27.624,2.116v4.288q8.656,0,17.322-.578a14.326,14.326,0,0,0,6.918-2.072c-.2.246-.4.494-.608.741a8.6,8.6,0,0,1-2.782,2.077,12.552,12.552,0,0,1-4.379,1.24q-8.238.788-16.471.785v2.451q7.711,0,15.44-.683a12.31,12.31,0,0,0,6.9-2.873c.975-.116,1.953-.21,2.928-.34a3.67,3.67,0,0,0,3.352-3.79q-.157-1.418-.315-2.854C988.288,1310.495,988.138,1310.381,987.873,1310.183Z" fill="#f2b100"/>
            <path id="Trazado_8681" data-name="Trazado 8681" d="M931.945,1310.691q-.159,1.437-.316,2.854a3.674,3.674,0,0,0,3.355,3.79c.947.125,1.9.219,2.842.329a12.237,12.237,0,0,0,6.877,2.873q7.774.7,15.546.694v-2.451q-8.3,0-16.613-.8a12.624,12.624,0,0,1-4.381-1.227,8.392,8.392,0,0,1-2.912-2.262c-.111-.141-.216-.285-.326-.426a14.868,14.868,0,0,0,6.76,1.934q8.732.584,17.472.586V1312.3a184.34,184.34,0,0,1-27.625-2.116C932.362,1310.381,932.21,1310.495,931.945,1310.691Z" fill="#f3b70e"/>
            <path id="Trazado_8682" data-name="Trazado 8682" d="M960.249,1316.587v2.193q8.226,0,16.471-.785a12.552,12.552,0,0,0,4.379-1.24,8.6,8.6,0,0,0,2.782-2.077c.2-.247.4-.495.608-.741a14.326,14.326,0,0,1-6.918,2.072Q968.913,1316.589,960.249,1316.587Z" fill="#ecbb1a"/>
            <path id="Trazado_8683" data-name="Trazado 8683" d="M960.249,1280c-9.7.555-13.662,4.218-14.524,5.135a1.612,1.612,0,0,1-.185.235l.03.047a1.975,1.975,0,0,0,.155-.273,2.388,2.388,0,0,1,.036.315s.116.268.307.718l.3.456c-.028.017-.056.036-.083.055a221.57,221.57,0,0,1,7.606,21.044c-2.885-5.857-6.122-12.933-9.683-18.6a27.747,27.747,0,0,1,2.179-1.981l-.2-.4c-.691.432-1.385.873-2.026,1.363a25.729,25.729,0,0,0-10.625,22c-.005.067.008.136.005.2a184.159,184.159,0,0,0,26.708,1.978l20.886-1.218-20.886-1.155Z" fill="#f7dc54"/>
            <path id="Trazado_8684" data-name="Trazado 8684" d="M936.017,1314.067c.11.141.215.285.326.426a8.392,8.392,0,0,0,2.912,2.262,12.624,12.624,0,0,0,4.381,1.227q8.305.8,16.613.8v-2.193q-8.733,0-17.472-.586A14.868,14.868,0,0,1,936.017,1314.067Z" fill="#f9cb31"/>
            <path id="Trazado_8685" data-name="Trazado 8685" d="M946.068,1286.18c-.191-.45-.307-.718-.307-.718a2.388,2.388,0,0,0-.036-.315,1.975,1.975,0,0,1-.155.273.4.4,0,0,1-.025.042l.642,1.292.2.4a27.747,27.747,0,0,0-2.179,1.981c3.561,5.668,6.8,12.744,9.683,18.6a221.57,221.57,0,0,0-7.606-21.044C946.2,1286.492,946.131,1286.332,946.068,1286.18Z" fill="#f3b70e"/>
            <path id="Trazado_8686" data-name="Trazado 8686" d="M974.314,1286.757l.663-1.295-.025-.045c-.028-.047-.077-.135-.18-.3-.033.222-.038.346-.038.346s-.106.254-.285.7c-.063.154-.135.334-.218.538-1.141,2.857-4.092,10.435-7.6,21.033,2.865-5.857,6.125-12.933,9.661-18.6a27.377,27.377,0,0,0-2.177-1.981Z" fill="#f2b100"/>
          </g>
          <g id="Grupo_11921" data-name="Grupo 11921">
            <path id="Trazado_8687" data-name="Trazado 8687" d="M992.015,1395.694v1.338a2.749,2.749,0,0,1-2.689,2.8h-.884a2.746,2.746,0,0,1-2.685-2.8v-1.338H980.43a3.21,3.21,0,0,0-1.193,2.5v5.2a3.129,3.129,0,0,0,3.069,3.192h13.157a3.128,3.128,0,0,0,3.069-3.192v-5.2a3.211,3.211,0,0,0-1.194-2.5Zm4.141,8.258h-14.54v-.848h14.54Zm0-1.959h-14.54v-.845h14.54Z" fill="#f2f3f4"/>
            <path id="Trazado_8688" data-name="Trazado 8688" d="M989.326,1392.89h-.884a1.589,1.589,0,0,0-1.682,1.476v2.945a1.589,1.589,0,0,0,1.682,1.478h.884a1.592,1.592,0,0,0,1.685-1.478v-2.945A1.592,1.592,0,0,0,989.326,1392.89Z" fill="#f2f3f4"/>
          </g>
        </g>
        <g id="Grupo_11924" data-name="Grupo 11924">
          <g id="Grupo_11923" data-name="Grupo 11923">
            <path id="Trazado_8689" data-name="Trazado 8689" d="M1071.236,1385.437c-.506-.873-.533-2.042-1.362-2.636a4.131,4.131,0,0,0-3.36-.24,63.98,63.98,0,0,0-6.117,2.174c-3.11,1.981-5.953,5.357-8.227,8.418-4.058,5.459-4.307,16.955,4.832,15.336a33.448,33.448,0,0,0,5.07-1.277c4.542-1.552,8.833-4.456,10.542-9.291a15.926,15.926,0,0,0,.813-6.009,19.369,19.369,0,0,0-.362-3.058C1072.752,1387.349,1071.965,1386.7,1071.236,1385.437Z" fill="#f9cfb3"/>
          </g>
          <path id="Trazado_8690" data-name="Trazado 8690" d="M1168.945,1302.478q-1.723,1.354-3.451,2.707c-8.992,7.058-17.681,14.546-26.411,21.944q-18.528,15.706-36.938,31.564-8.553,7.349-17.1,14.7l-7.282,6.267c-1.07.917-2.166,1.809-3.211,2.757-1.724,1.572-.321,2.721-1.282,4.528-.815,1.533-4.155.536-5.467,1.262-.368.2-4.413,3.268-4.36,3.694l.84,6.636a11.331,11.331,0,0,0,5.061-3.342c9.99-10.886,87.866-79.043,101.625-91.45C1172.52,1302.35,1170.633,1301.157,1168.945,1302.478Z" fill="#303e43"/>
        </g>
      </g>
    </g>
  </g>
</svg>
